<svg xmlns="http://www.w3.org/2000/svg" data-name="Layer 1" viewBox="0 0 512 512"><circle cx="256" cy="256" r="219.5" fill="#fdd402"/><path fill="#74563a" d="M357.23378,364.146l-26.98848-6.27957a10,10,0,0,0-7.07545.9722l-28.46179,15.61186a10,10,0,0,1-9.36684.13339L255.66778,359.39a10,10,0,0,0-9.288.09062l-27.33487,14.67644a10,10,0,0,1-10.29021-.49843L187.49609,359.439a10,10,0,0,0-7.91042-1.40783l-24.735,5.98191A10,10,0,0,1,142.5,354.29332v-3.19385a10,10,0,0,1,4.12757-8.0941l31.58191-22.91329a10,10,0,0,1,11.43222-.21786l19.113,12.78446a10,10,0,0,0,10.29021.49843l27.33487-14.67644a10,10,0,0,1,9.288-.09062l29.67344,15.19378a10,10,0,0,0,9.36684-.13339l26.371-14.465a10,10,0,0,1,10.533.56772l33.61174,23.46192A10,10,0,0,1,369.5,351.215v3.19114A10,10,0,0,1,357.23378,364.146Z"/><path fill="#2c2b2d" d="M141.36816,241.24316a7.49742,7.49742,0,0,0,10.3711,2.22266l56.66992-36.66894a7.5,7.5,0,0,0,0-12.59375l-56.66992-36.66895a7.5,7.5,0,1,0-8.14844,12.59375L190.5293,200.5l-46.93848,30.37207A7.50022,7.50022,0,0,0,141.36816,241.24316Zm162.22266-34.44628,56.66992,36.66894a7.5,7.5,0,1,0,8.14844-12.59375L321.4707,200.5l46.93848-30.37207a7.5,7.5,0,1,0-8.14844-12.59375l-56.66992,36.66895a7.5,7.5,0,0,0,0,12.59375ZM369.5166,336.86426l-33.6123-23.46192a17.39828,17.39828,0,0,0-18.43164-.99316L291.10059,326.874a2.492,2.492,0,0,1-2.3418.03418L259.085,311.71387a17.50026,17.50026,0,0,0-16.25293.15918l-27.334,14.67578a2.49757,2.49757,0,0,1-2.57325-.125l-19.11328-12.78418a17.56366,17.56366,0,0,0-20.00586.38183l-31.583,22.91407A17.55239,17.55239,0,0,0,135,351.09961V354.293a17.49936,17.49936,0,0,0,21.61328,17.00976l24.73535-5.98144a2.50257,2.50257,0,0,1,1.97754.35254L204.585,379.8916a17.468,17.468,0,0,0,18.00781.87305l27.335-14.67676a2.49154,2.49154,0,0,1,2.32227-.02246l29.67383,15.19531a17.48918,17.48918,0,0,0,16.39062-.23437l28.46387-15.61231a2.51181,2.51181,0,0,1,1.76758-.24316l26.98828,6.2793A17.49807,17.49807,0,0,0,377,354.40625v-3.19141A17.514,17.514,0,0,0,369.5166,336.86426ZM362,354.40625a2.49917,2.49917,0,0,1-3.06641,2.43457h-.001l-26.98828-6.2793a17.468,17.468,0,0,0-12.38086,1.70118L291.10059,367.874a2.49481,2.49481,0,0,1-2.3418.03418L259.085,352.71387a17.49829,17.49829,0,0,0-16.25293.15918l-27.334,14.67578a2.49757,2.49757,0,0,1-2.57325-.125L191.666,353.20508a17.5616,17.5616,0,0,0-13.84278-2.46387l-24.73633,5.98145A2.49931,2.49931,0,0,1,150,354.293v-3.19336a2.51142,2.51142,0,0,1,1.03223-2.02441l31.583-22.91309a2.50665,2.50665,0,0,1,2.85645-.05371L204.585,338.8916a17.468,17.468,0,0,0,18.00781.87305l27.335-14.67676a2.49436,2.49436,0,0,1,2.32227-.02246l29.67383,15.19531a17.49046,17.49046,0,0,0,16.39062-.23437l26.3711-14.46485a2.485,2.485,0,0,1,2.63379.14161l33.61035,23.46093A2.50356,2.50356,0,0,1,362,351.21484ZM416.51367,95.48633A227.00061,227.00061,0,0,0,95.48633,416.51367,227.00061,227.00061,0,0,0,416.51367,95.48633ZM256,468C139.10254,468,44,372.89746,44,256S139.10254,44,256,44s212,95.10254,212,212S372.89746,468,256,468Z"/></svg>