<svg xmlns="http://www.w3.org/2000/svg" data-name="Layer 1" viewBox="0 0 512 512"><circle cx="256" cy="256" r="219.5" fill="#fdd402"/><circle cx="165.5" cy="194.5" r="28" fill="#74563a"/><circle cx="346.5" cy="194.5" r="28" fill="#74563a"/><path fill="#2c2b2d" d="M201,194.5A35.5,35.5,0,1,0,165.5,230,35.54,35.54,0,0,0,201,194.5Zm-56,0A20.5,20.5,0,1,1,165.5,215,20.52325,20.52325,0,0,1,145,194.5ZM346.5,159A35.5,35.5,0,1,0,382,194.5,35.54,35.54,0,0,0,346.5,159Zm0,56A20.5,20.5,0,1,1,367,194.5,20.52325,20.52325,0,0,1,346.5,215ZM313.78223,316.68945a131.79347,131.79347,0,0,0-98.9541-22.53955l-6.89649,1.189A130.86558,130.86558,0,0,0,157.27051,315.478a7.5001,7.5001,0,0,0,8.31836,12.48242,115.94082,115.94082,0,0,1,44.8916-17.83936l6.89648-1.189a115.96118,115.96118,0,0,1,48.26563,1.78223,117.19109,117.19109,0,0,1,39.4541,18.20459,118.3802,118.3802,0,0,1,38.67773,46.33789,7.49988,7.49988,0,0,0,13.5918-6.34473A133.40323,133.40323,0,0,0,313.78223,316.68945ZM416.51367,95.48682A227.00026,227.00026,0,0,0,95.48633,416.51318,227.00026,227.00026,0,0,0,416.51367,95.48682ZM256,468C139.10254,468,44,372.897,44,256S139.10254,44,256,44s212,95.103,212,212S372.89746,468,256,468Z"/></svg>