<svg xmlns="http://www.w3.org/2000/svg" data-name="Layer 1" viewBox="0 0 512 512"><circle cx="256" cy="256" r="219.5" fill="#fdd402"/><circle cx="256" cy="347" r="75.5" fill="#74563a"/><path fill="#2c2b2d" d="M416.51367,95.48682A227.00044,227.00044,0,0,0,95.48633,416.51367,227.00044,227.00044,0,0,0,416.51367,95.48682ZM256,468C139.10254,468,44,372.89746,44,256,44,139.103,139.10254,44,256,44s212,95.103,212,212C468,372.89746,372.89746,468,256,468ZM389.62988,173.90625a7.5,7.5,0,0,0-10.53125-1.26367L351.32129,194.468l-27.77637-21.82544a7.50014,7.50014,0,1,0-9.26758,11.79492l25.00489,19.648-25.082,20.2456a7.50007,7.50007,0,1,0,9.42187,11.67188L351.38428,213.594l27.71435,21.77564a7.50014,7.50014,0,0,0,9.26758-11.79492l-24.90527-19.56836,24.90527-19.56885A7.50083,7.50083,0,0,0,389.62988,173.90625Zm-48.59375-49.28711a68.0237,68.0237,0,0,0-33.4414,17.27051,7.49986,7.49986,0,1,0,10.23437,10.96582,53.28326,53.28326,0,0,1,26.05176-13.50879c26.42773-5.105,45.98633,12.87891,48.12988,14.9458a7.50007,7.50007,0,1,0,10.41406-10.7959C399.707,140.875,374.8877,118.07031,341.03613,124.61914ZM185.79883,236.97266a7.50044,7.50044,0,0,0,4.63867-13.39795l-24.90527-19.56836L190.4375,184.4375a7.50014,7.50014,0,0,0-9.26758-11.79492L153.39258,194.468l-27.77735-21.82544a7.50013,7.50013,0,1,0-9.26757,11.79492l25.00586,19.648-25.083,20.2456a7.50007,7.50007,0,1,0,9.42187,11.67188L153.45532,213.594l27.7146,21.77564A7.46719,7.46719,0,0,0,185.79883,236.97266ZM119.89941,152.856a53.28848,53.28848,0,0,1,26.05176-13.50928c26.43457-5.10889,45.98633,12.87744,48.12891,14.94482a7.5,7.5,0,0,0,10.416-10.79394c-2.71582-2.6211-27.51953-25.42236-61.38964-18.87842a68.03931,68.03931,0,0,0-33.44141,17.27,7.50022,7.50022,0,0,0,10.23437,10.9668ZM256,264a83,83,0,1,0,83,83A83.09369,83.09369,0,0,0,256,264Zm0,151a68,68,0,1,1,68-68A68.07728,68.07728,0,0,1,256,415Z"/></svg>