<svg xmlns="http://www.w3.org/2000/svg" data-name="Layer 1" viewBox="0 0 512 512"><circle cx="256.5" cy="255.5" r="219.5" fill="#fdd402"/><path fill="#4ebaea" d="M431.587,21.34783c-.74945-3.55986-2.94934-6.587-6.587-6.587s-5.83751,3.0271-6.587,6.587C409.63043,63.06522,374.5,85.02174,374.5,126.73913a50.5,50.5,0,0,0,101,0C475.5,85.02174,440.36957,63.06522,431.587,21.34783Z"/><path fill="#2c2b2d" d="M165.5,230A35.54028,35.54028,0,0,0,201,194.5a7.5,7.5,0,0,0-15,0,20.5,20.5,0,0,1-41,0,7.5,7.5,0,0,0-15,0A35.54028,35.54028,0,0,0,165.5,230Zm209-43a7.50006,7.50006,0,0,0-7.5,7.5,20.5,20.5,0,0,1-41,0,7.5,7.5,0,0,0-15,0,35.5,35.5,0,0,0,71,0A7.50006,7.50006,0,0,0,374.5,187ZM353.19336,347.94678A132.16887,132.16887,0,0,0,259.5,309.14014h-7a131.47793,131.47793,0,0,0-53.34082,11.17529,133.55143,133.55143,0,0,0-62.24854,56.51221,7.50013,7.50013,0,0,0,13.07911,7.34472,118.4576,118.4576,0,0,1,55.21435-50.1289A116.57358,116.57358,0,0,1,252.5,324.14014h7a117.16738,117.16738,0,0,1,83.08691,34.41308,117.92616,117.92616,0,0,1,19.42432,25.62061,7.5,7.5,0,0,0,13.07715-7.34766A132.92018,132.92018,0,0,0,353.19336,347.94678ZM465.42377,168.29834A57.81858,57.81858,0,0,0,482.5,127.23926c0-25.14063-11.61816-43.64942-22.854-61.54883-8.62842-13.74658-17.55127-27.96143-21.21973-45.3877l-.00049-.00048c-1.604-7.61866-7.07031-12.54151-13.92578-12.54151s-12.32178,4.92285-13.92627,12.542C406.90527,37.729,397.98242,51.94385,389.354,65.69043q-1.42555,2.27106-2.85174,4.55939A227.007,227.007,0,0,0,29,256,227.002,227.002,0,0,0,416.51465,416.51465a227.19844,227.19844,0,0,0,48.90912-248.21631ZM402.05811,73.665c8.81-14.03516,17.9038-28.52295,22.44189-46.97559,4.53809,18.45313,13.63184,32.94043,22.44189,46.97559C457.51416,90.50781,467.5,106.4165,467.5,127.23926a43,43,0,1,1-86,0C381.5,106.4165,391.48584,90.50781,402.05811,73.665ZM256,468C139.103,468,44,372.897,44,256S139.103,44,256,44A209.9835,209.9835,0,0,1,378.86365,83.22559C371.88354,96.09106,366.5,110.12854,366.5,127.23926a57.95745,57.95745,0,0,0,86.54987,50.45624A210.43379,210.43379,0,0,1,468,256C468,372.897,372.897,468,256,468Z"/></svg>