<svg xmlns="http://www.w3.org/2000/svg" data-name="Layer 1" viewBox="0 0 512 512"><circle cx="256" cy="242" r="219.5" fill="#fdd402"/><path fill="#74563a" d="M324.2726,355.67852c-12.82533,11.61137-31.54191,18.35542-49.91274,19.64612-24.92839,1.75143-52.57191-3.20122-74.45577-15.64677-24.63439-14.00979-44.40488-47.4893-21.863-72.61638,4.75157-5.29647,11.34833-6.33125,16.69035-2.7,14.124,9.60068,37.7385,21.95058,68.3916,22.59467a126.96963,126.96963,0,0,0,56.75139-12.50217c7.70207-3.63008,16.01245,1.352,18.6824,11.29124C344.27062,327.01578,337.32023,343.8659,324.2726,355.67852Z"/><path fill="#4ebaea" d="M296.61519,335.90285c-11.04064,6.123-13.25971,23.1438-13.40181,34.63379-.19194,15.51807,2.41321,31.24,9.09926,45.24536,12.93066,27.08594,40.08357,43.03516,69.9799,36.15381,12.17172-2.80151,29.70175-10.13525,31.17-24.47974.6937-6.77783-3.23111-13.39111-8.59524-17.59155-13.41229-10.50269-30.09055-7.968-45.64945-11.5271-7.697-1.7605-15.48475-6.38647-17.789-13.93921-4.97907-16.322,14.97459-33.97778-4.05237-47.095C311.40463,333.1863,303.0446,332.33718,296.61519,335.90285Z"/><path fill="#2c2b2d" d="M375.71436 162.03613a7.503 7.503 0 0 1-7.19873-5.40918c-.75-2.58105-7.99512-25.45117-30.98243-33.3125a48.09585 48.09585 0 0 0-26.458-1.10937 7.50009 7.50009 0 1 1-3.42676-14.60352 62.85776 62.85776 0 0 1 34.73926 1.51953c30.15478 10.3125 39.55908 39.97168 40.53222 43.32032a7.5056 7.5056 0 0 1-7.20556 9.59472zM136.28564 162.03613a7.5056 7.5056 0 0 1-7.20556-9.59472c.97314-3.34864 10.37744-33.00782 40.5332-43.32032a62.84524 62.84524 0 0 1 34.73828-1.51953 7.50009 7.50009 0 1 1-3.42676 14.60352 48.083 48.083 0 0 0-26.457 1.10937c-22.98828 7.86133-30.23339 30.73145-30.98339 33.3125A7.50466 7.50466 0 0 1 136.28564 162.03613z"/><path fill="#2c2b2d" d="M416.51465,82.10547A227.00061,227.00061,0,0,0,95.48535,403.13086a227.24967,227.24967,0,0,0,232.00379,54.98633,65.90486,65.90486,0,0,0,21.19006,3.49707,68.142,68.142,0,0,0,15.29492-1.75488c21.6582-4.9834,35.47119-16.58106,36.94922-31.02442a24.11631,24.11631,0,0,0-1.32147-10.40942,229.22539,229.22539,0,0,0,59.4245-74.16675A227.16422,227.16422,0,0,0,416.51465,82.10547ZM386.00146,427.30762c-.93457,9.12988-13.729,15.251-25.3916,17.93457a54.2015,54.2015,0,0,1-12.17041,1.40429,50.67049,50.67049,0,0,1-17.753-3.19824,7.54471,7.54471,0,0,0-1.06408-.40576c-12.7663-5.08813-23.63038-15.39941-30.54181-29.87646-5.74756-12.03907-8.563-26.14356-8.36768-41.9209.18115-14.63867,3.6582-24.90528,9.54-28.168h-.00049c3.71826-2.06152,9.00879-1.64258,12.86719,1.0166,6.52588,4.499,6.06152,8.3916,2.92725,19.26074-2.065,7.16211-4.40528,15.2793-1.792,23.84766,2.8208,9.24512,11.52735,16.37109,23.29053,19.0625a129.82412,129.82412,0,0,0,15.90625,2.30664c10.376,1.06055,19.3374,1.97656,26.792,7.81445a17.22216,17.22216,0,0,1,3.63074,3.85425l.01923.03A10.93572,10.93572,0,0,1,386.00146,427.30762ZM275.785,368.27539c-.65087.06055-1.296.137-1.95056.18359-25.11621,1.75684-50.71386-3.59082-70.22656-14.68847-14.26562-8.11426-25.32861-22.65918-27.52832-36.19238-1.50537-9.25977,1.03223-17.63379,7.54541-24.89258,1.28662-1.43555,3.8916-3.542,6.89014-1.501,22.22509,15.09863,47.27734,23.3584,72.44824,23.88379a133.53928,133.53928,0,0,0,60.10156-13.21289,4.11249,4.11249,0,0,1,3.67041-.07129c2.02393.93848,3.73682,3.377,4.58154,6.52246,3.02527,11.26074,2.17957,21.395-2.48584,30.27881a29.33221,29.33221,0,0,0-7.19726-6.84131c-8.49854-5.85937-20.01465-6.57715-28.65576-1.78418h-.00049C279.91168,337.20654,276.33154,354.24414,275.785,368.27539Zm115.35242,37.68652c-.53186-.47558-1.07721-.94116-1.64624-1.38671-10.86572-8.50879-23.4292-9.793-34.51416-10.92579a116.48168,116.48168,0,0,1-14.08691-2.00781c-4.98828-1.14062-10.83545-4.05566-12.2876-8.8164-1.31543-4.31153.22559-9.65625,1.85742-15.31446a81.75318,81.75318,0,0,0,2.194-8.93725c13.96008-14.60743,18.6355-33.73706,13.14923-54.15845-2.01269-7.49316-6.66259-13.41211-12.75781-16.23828a19.03526,19.03526,0,0,0-16.374.11035,118.89767,118.89767,0,0,1-53.39453,11.78516c-28.12989-.58789-50.51026-11.90528-64.32959-21.29395-8.41407-5.72266-19.3086-4.11914-26.48926,3.89258-9.5542,10.64746-13.42139,23.55078-11.18408,37.31445,2.93408,18.04785,16.64013,36.42676,34.918,46.82422C215.48,377.7793,239.87842,383.78613,264.457,383.78613c3.478,0,6.96436-.12109,10.43506-.36425.41577-.02979.82465-.08228,1.23932-.1167a103.20387,103.20387,0,0,0,9.413,36.32373,76.42871,76.42871,0,0,0,22.9599,28.43725A212.30157,212.30157,0,0,1,256,454.62012c-116.897,0-212-95.10254-212-212s95.103-212,212-212,212,95.10254,212,212A210.62951,210.62951,0,0,1,391.13745,405.96191ZM342.3877,109.12109a62.85776,62.85776,0,0,0-34.73926-1.51953,7.50009,7.50009,0,1,0,3.42676,14.60352,48.09585,48.09585,0,0,1,26.458,1.10937c22.98731,7.86133,30.23243,30.73145,30.98243,33.3125a7.5,7.5,0,1,0,14.40429-4.18554C381.94678,149.09277,372.54248,119.43359,342.3877,109.12109Zm-12.75538,60.98243a47.24453,47.24453,0,0,0-26.01562,2.32031,7.50037,7.50037,0,0,0,5.33105,14.02148,31.79749,31.79749,0,0,1,17.75489-1.63086c16.04248,3.19434,22.94384,17.86035,23.67822,19.52149a7.4998,7.4998,0,1,0,13.7207-6.06055C362.37793,194.37305,352.61572,174.67871,329.63232,170.10352ZM174.46777,123.31445a48.083,48.083,0,0,1,26.457-1.10937,7.50009,7.50009,0,1,0,3.42676-14.60352,62.84524,62.84524,0,0,0-34.73828,1.51953c-30.15576,10.3125-39.56006,39.97168-40.5332,43.32032a7.5,7.5,0,1,0,14.4043,4.18554C144.23438,154.0459,151.47949,131.17578,174.46777,123.31445Zm33.91553,49.10938a47.20635,47.20635,0,0,0-26.01465-2.32031c-22.98437,4.57519-32.74658,24.26953-34.47021,28.17187a7.4998,7.4998,0,1,0,13.7207,6.06055c.73438-1.66114,7.63574-16.32715,23.6792-19.52149a31.77972,31.77972,0,0,1,17.75391,1.63086,7.50037,7.50037,0,0,0,5.33105-14.02148Z"/></svg>