<svg xmlns="http://www.w3.org/2000/svg" data-name="Layer 1" viewBox="0 0 512 512"><circle cx="256" cy="256" r="219.5" fill="#fdd402"/><path fill="#2c2b2d" d="M221,204.5a7.49974,7.49974,0,0,0-7.5-7.5h-76a7.5,7.5,0,0,0,0,15h76A7.49974,7.49974,0,0,0,221,204.5ZM374.5,197h-76a7.5,7.5,0,0,0,0,15h76a7.5,7.5,0,0,0,0-15ZM416.51367,95.48682A227.00026,227.00026,0,0,0,95.48633,416.51318,227.00026,227.00026,0,0,0,416.51367,95.48682ZM256,468C139.10254,468,44,372.897,44,256S139.10254,44,256,44s212,95.103,212,212S372.89746,468,256,468Zm90-123H166a7.5,7.5,0,0,0,0,15H346a7.5,7.5,0,0,0,0-15Z"/></svg>