<svg xmlns="http://www.w3.org/2000/svg" data-name="Layer 1" viewBox="0 0 512 512"><circle cx="256" cy="256" r="219.5" fill="#fdd402"/><circle cx="185.12" cy="216" r="19.5" fill="#74563a"/><circle cx="326.88" cy="216" r="19.5" fill="#74563a"/><rect width="305" height="136" x="114.5" y="307.5" fill="#fff" rx="15" transform="rotate(-9.98 267 375.5)"/><path fill="#2c2b2d" d="M204.43994 220.81982a7.51 7.51 0 1 1 7.5-7.5A7.50144 7.50144 0 0 1 204.43994 220.81982zM307.56006 220.81982h0a7.52081 7.52081 0 1 1 6.73242-4.19091A7.50006 7.50006 0 0 1 307.56006 220.81982z"/><path fill="#2c2b2d" d="M182.439,175.20313c-27.82177-15.55079-56.17285-2.73292-59.31347-1.22022a7.50017,7.50017,0,1,0,6.50879,13.51465c2.42236-1.16651,24.27588-11.05664,45.4873.7998q1.428.798,2.78479,1.68909a27.02457,27.02457,0,1,0,28.57245,9.52551A62.782,62.782,0,0,0,182.439,175.20313ZM185.12012,228a12,12,0,1,1,12-12A12.01375,12.01375,0,0,1,185.12012,228Zm203.75439-54.01709c-3.1416-1.5127-31.49267-14.33105-59.3125,1.21973A62.78238,62.78238,0,0,0,305.52118,199.512a26.989,26.989,0,1,0,28.57257-9.52551q1.35837-.88935,2.78564-1.68957c21.208-11.855,43.06446-1.96631,45.48633-.79932a7.50017,7.50017,0,0,0,6.50879-13.51465ZM338.87988,216a12,12,0,1,1-12-12A12.01375,12.01375,0,0,1,338.87988,216Zm94.47858,181.66406A226.99625,226.99625,0,1,0,29,256,224.68627,224.68627,0,0,0,52.94775,357.5957a229.12011,229.12011,0,0,0,61.83667,76.115l3.821,21.71509a22.51406,22.51406,0,0,0,22.1123,18.60645,22.79826,22.79826,0,0,0,3.94678-.34571L175.4408,468.271a227.18794,227.18794,0,0,0,228.63189-40.23035l11.43073-2.01135a22.52642,22.52642,0,0,0,18.26074-26.05957ZM256,468a212.41571,212.41571,0,0,1-48.00586-5.457l163.50775-28.77112A211.85257,211.85257,0,0,1,256,468Zm161.74658-59.82617a7.44953,7.44953,0,0,1-4.84277,3.082L142.06494,458.91309a7.49937,7.49937,0,0,1-8.686-6.08692L115.00928,348.43066a7.49884,7.49884,0,0,1,6.08691-8.68652l270.83887-47.65723a7.59845,7.59845,0,0,1,1.31543-.11523,7.50347,7.50347,0,0,1,7.3706,6.20215l17.40076,98.8894c.00568.02906.0094.05884.01544.08789l.95343,5.41822A7.45487,7.45487,0,0,1,417.74658,408.17383Zm-2.35205-112.59961a22.501,22.501,0,0,0-26.05908-18.26074L118.49658,324.9707a22.52642,22.52642,0,0,0-18.26074,26.05957l10.43921,59.32691A210.4814,210.4814,0,0,1,44,256C44,139.103,139.103,44,256,44s212,95.103,212,212A212.43858,212.43858,0,0,1,429.79236,377.398ZM212.30811,390.708l-4.43177.77978L205.10345,375.73l4.43171-.77978a7.50021,7.50021,0,0,0-2.59961-14.77344l-4.4317.77978-.77973-4.43115a7.50021,7.50021,0,0,0-14.77344,2.59961l.77973,4.43115-15.75727,2.77259-.77978-4.43128a7.50021,7.50021,0,0,0-14.77344,2.59961l.77979,4.43115-4.43164.77979a7.50021,7.50021,0,1,0,2.59961,14.77344l4.43139-.77979,2.77271,15.75781-4.43164.77979a7.50021,7.50021,0,1,0,2.59961,14.77344l4.43164-.77979.77978,4.43213a7.50021,7.50021,0,0,0,14.77344-2.59961l-.77985-4.432,15.75775-2.7727.77991,4.43225a7.50021,7.50021,0,0,0,14.77344-2.59961l-.77991-4.43213,4.43176-.77978a7.50021,7.50021,0,1,0-2.5996-14.77344Zm-34.96283,6.152-2.77277-15.75782L190.33,378.32959l2.77282,15.75769ZM364.2627,321.39258a7.50015,7.50015,0,0,0-11.94434,9.07422,64.338,64.338,0,0,1,10.24951,58.2334,7.5,7.5,0,1,0,14.32129,4.46093,79.33626,79.33626,0,0,0-12.62646-71.76855ZM250.48145,394.14453a7.50045,7.50045,0,0,0,6.08691-8.68652l-6.58545-37.42481a7.50021,7.50021,0,0,0-14.77344,2.59961l6.58545,37.42481a7.49534,7.49534,0,0,0,8.68653,6.08691Zm73.46484-14.7334A20.25085,20.25085,0,0,0,300.52686,363l-9.2295,1.625a5.22463,5.22463,0,0,1-6.04687-4.2373l-.46387-2.63672a5.22622,5.22622,0,0,1,4.23584-6.0459l9.2334-1.624a5.15982,5.15982,0,0,1,3.89844.86622,7.5005,7.5005,0,0,0,8.6084-12.28516,20.05734,20.05734,0,0,0-12.299-3.62817l-.71026-4.03687A7.50021,7.50021,0,0,0,282.98,333.59668l.71057,4.03857a20.23629,20.23629,0,0,0-13.67737,22.71534l.46436,2.63671a20.25044,20.25044,0,0,0,23.41894,16.41114l9.2295-1.625a5.22325,5.22325,0,0,1,6.04736,4.23828l.46387,2.63574a5.22012,5.22012,0,0,1-4.23731,6.0459l-9.22949,1.625a5.205,5.205,0,0,1-4.81152-1.67578A7.50009,7.50009,0,0,0,280.1626,400.625a20.09084,20.09084,0,0,0,15.05029,6.77832c.24847,0,.499-.02344.74835-.03271l.70917,4.03076a7.50021,7.50021,0,0,0,14.77344-2.59961l-.71015-4.03613a20.17672,20.17672,0,0,0,13.67646-22.71875Zm-71.73212,24.58228a7.50007,7.50007,0,1,0,8.68628,6.08691A7.50015,7.50015,0,0,0,252.21417,403.99341Z"/></svg>