<svg xmlns="http://www.w3.org/2000/svg" data-name="Layer 1" viewBox="0 0 512 512"><circle cx="256" cy="256" r="219.5" fill="#fdd402"/><path fill="#e5303e" d="M209.10013,369.91957l-74.95331,74.95332a54,54,0,0,1-76.36754-76.36753L132.7326,293.552,165.5,336.5Z"/><path fill="#2c2b2d" d="M416.51465,95.48535a227.034,227.034,0,0,0-361.48,266.15759l-3.05908,3.05921a61.50035,61.50035,0,0,0,86.97461,86.97461l.72827-.72827A227.00909,227.00909,0,0,0,416.51465,95.48535Zm-288.17188,345.584A46.49952,46.49952,0,1,1,62.583,375.30859l68.54126-68.54126a131.68979,131.68979,0,0,0,21.37134,33.782L108.544,384.501a7.50058,7.50058,0,0,0,10.60742,10.60742l43.82934-43.82935A132.96949,132.96949,0,0,0,196.022,373.39087ZM256,468a211.3352,211.3352,0,0,1-105.35986-28.01294l60.55444-60.55371A131.83529,131.83529,0,0,0,252.5,386h7a132.58695,132.58695,0,0,0,127.793-97.37793,7.50014,7.50014,0,1,0-14.4668-3.96484A117.429,117.429,0,0,1,259.5,371h-7a117.418,117.418,0,0,1-113.32715-86.334,7.49971,7.49971,0,1,0-14.46484,3.96875c.23779.86694.49389,1.72607.74829,2.58569l-59.262,59.26269A212.35658,212.35658,0,0,1,44,256C44,139.10254,139.10254,44,256,44s212,95.10254,212,212S372.89746,468,256,468ZM165.5,159A35.53965,35.53965,0,0,0,130,194.5a7.5,7.5,0,0,0,15,0,20.5,20.5,0,0,1,41,0,7.5,7.5,0,0,0,15,0A35.53965,35.53965,0,0,0,165.5,159Zm181,0A35.53965,35.53965,0,0,0,311,194.5a7.5,7.5,0,0,0,15,0,20.5,20.5,0,0,1,41,0,7.5,7.5,0,0,0,15,0A35.53965,35.53965,0,0,0,346.5,159Z"/></svg>