<svg xmlns="http://www.w3.org/2000/svg" data-name="Layer 1" viewBox="0 0 512 512"><circle cx="256" cy="256" r="219.5" fill="#fdd402"/><path fill="#74563a" d="M369.5,367.00015a635.56033,635.56033,0,0,0-227.00006,0c4.218-10.28565,15.58124-33.94141,41.34967-51,25.76971-17.05908,51.20215-17.76026,66.99817-18.1958,15.71582-.43311,45.75391-1.26123,75.67395,18.1958C352.18729,332.69058,364.42606,355.632,369.5,367.00015Z"/><path fill="#74bf4b" d="M179.13275,346.80444c1.23926,6.19092,8.429,43.49707-.28491,68a51.15021,51.15021,0,0,1-7,14c-8.75531,12.0586-16.57166,10.69092-22,19-7.33539,11.22852-4.13324,30.67237,7,42,1.49878,1.52491,8.9422,9.09864,20,10,11.69891.95362,13.05609-6.7334,25-7,12.56018-.28027,15.227,8.12744,34,10a53.73467,53.73467,0,0,0,13,0c13.51953-1.73877,15.96338-7.64843,26-9,10.06641-1.35547,11.2688,4.09668,26,6,6.2124.80274,18.26611,2.36035,29-3,14.85181-7.4165,24.55676-26.76855,22-43-2.8396-18.02685-18.90112-20.12988-28-38-6.26685-12.3081-9.71924-33.05517,6.76977-69.09179a162.26887,162.26887,0,0,0-151.48486.09179Z"/><path fill="#2c2b2d" d="M416.51465,95.48535a227.013,227.013,0,1,0-276.41754,355.7312c-4.29608,13.94873.08276,32.32886,11.40484,43.84888,7.03028,7.14941,15.81543,11.4873,24.73682,12.21484,8.3457.67481,13.18164-2.01757,17.062-4.18652,2.80908-1.57031,4.83936-2.7041,8.71436-2.791,4.20556-.06152,6.63086,1.13086,10.66406,3.15918a57.453,57.453,0,0,0,22.42383,6.80567,71.44054,71.44054,0,0,0,7.49414.43457,56.36867,56.36867,0,0,0,7.20752-.459,47.006,47.006,0,0,0,17.67773-5.88769c2.939-1.55176,5.062-2.67285,8.36621-3.11817,3.32178-.44531,4.6875.13282,7.98828,1.53223a55.437,55.437,0,0,0,16.04981,4.47363c6.66406.86133,20.53271,2.65235,33.312-3.72851,16.13422-8.05762,27.064-27.31763,26.54077-45.563A227.0447,227.0447,0,0,0,416.51465,95.48535ZM326.49707,490.09473c-8.68945,4.33789-19.09619,2.99414-24.68848,2.27148A40.5126,40.5126,0,0,1,289.69238,488.96c-4.15478-1.76172-8.45068-3.58691-15.8457-2.58789a37.17508,37.17508,0,0,0-13.36914,4.71973,32.27655,32.27655,0,0,1-12.58691,4.27441,46.6366,46.6366,0,0,1-11.29834-.02441,43.242,43.242,0,0,1-17.17383-5.28125c-4.8208-2.42481-9.79248-4.918-17.73828-4.75391A30.99051,30.99051,0,0,0,185.9834,489.999c-3.04639,1.70411-4.72217,2.64356-8.52637,2.33008-5.33349-.43457-10.75293-3.19824-15.26025-7.78125-8.61231-8.76367-11.50586-24.32129-6.07032-32.6416,1.48145-2.26758,3.13477-3.2998,6.438-5.23828a44.771,44.771,0,0,0,15.35254-13.457,58.754,58.754,0,0,0,7.99707-15.89356c6.27521-17.6455,5.03321-40.95068,3.01526-56.864-.00525-.05444-.00445-.10791-.01086-.16235-.00885-.0752-.02643-.14673-.03742-.2212-.83142-6.4685-1.78326-11.68579-2.39422-14.73779a7.5,7.5,0,1,0-14.708,2.94531c.412,2.05811.80206,4.2,1.16644,6.39844q-8.67232,1.1294-17.33343,2.49219a102.03867,102.03867,0,0,1,32.37841-34.91406c23.96827-15.86719,47.4834-16.52246,63.08448-16.957,15.16943-.418,43.4082-1.1875,71.35693,16.99121a107.95678,107.95678,0,0,1,33.43262,34.79882q-10.15375-1.59375-20.36609-2.85791.92614-2.1731,1.93933-4.395a7.50008,7.50008,0,1,0-13.63965-6.24218q-3.35614,7.33448-5.81775,14.25171c-.06939.17993-.13452.36206-.19031.54907-8.56988,24.3584-8.79492,44.77-.62573,60.81543,4.65967,9.15039,10.73145,14.585,16.08887,19.37988,5.81592,5.20508,10.01758,8.96582,11.186,16.38379C346.51025,468.11914,338.294,484.20313,326.49707,490.09473Zm29.72668-47.2334c-3.2843-6.76538-8.339-11.30811-12.96691-15.4502-4.80274-4.29883-9.33936-8.3584-12.72559-15.00879-5.6972-11.18994-5.80988-25.83838-.36646-43.69653,12.70807,1.51172,25.45972,3.39893,37.99585,5.67407a7.5005,7.5005,0,0,0,8.18946-10.43457c-7.0166-15.73535-20.64746-37.917-45.74072-54.23242-31.86622-20.72559-64.33985-19.83984-79.99317-19.40918-16.21826.45215-43.36182,1.208-70.90625,19.44238-24.77246,16.39942-37.68164,38.63868-44.14892,54.40821a7.49957,7.49957,0,0,0,8.27929,10.22461c10.23425-1.85889,20.633-3.46485,31.01123-4.8169,1.38,15.29248.989,31.31568-3.0708,42.731a43.66317,43.66317,0,0,1-6.00195,12.10547c-3.78516,5.21289-7.19531,7.21386-10.80615,9.333a41.55,41.55,0,0,0-6.92,4.76293A212.27257,212.27257,0,0,1,44,256C44,139.10254,139.103,44,256,44s212,95.10254,212,212C468,334.99756,425.392,405.82007,356.22375,442.86133Zm14.4076-283.10449a7.50223,7.50223,0,0,0-10.3711-2.22266l-56.66894,36.66895a7.5,7.5,0,0,0,0,12.59375l56.66894,36.66894a7.5,7.5,0,1,0,8.14844-12.59375L321.47119,200.5l46.9375-30.37207A7.49978,7.49978,0,0,0,370.63135,159.75684ZM208.40869,194.20313l-56.66894-36.66895a7.5,7.5,0,1,0-8.14844,12.59375L190.52881,200.5l-46.9375,30.37207a7.5,7.5,0,1,0,8.14844,12.59375l56.66894-36.66894a7.5,7.5,0,0,0,0-12.59375Z"/></svg>