<svg xmlns="http://www.w3.org/2000/svg" data-name="Layer 1" viewBox="0 0 512 512"><circle cx="256" cy="256" r="219.5" fill="#fdd402"/><circle cx="165.5" cy="177.5" r="28" fill="#74563a"/><path fill="#e5303e" d="M464.62536,318.07164v0a3.28836,3.28836,0,0,0,3.948,2.45764h0A39.06837,39.06837,0,0,1,515.47871,349.728l0,.00011a39.06832,39.06832,0,0,1-29.19868,46.90528l-3.20285.74518-64.41628,14.98732a12,12,0,0,1-14.40715-8.96849l-14.98733-64.41627-.74518-3.20285A39.06838,39.06838,0,0,1,417.72,288.873l.00011,0A39.06831,39.06831,0,0,1,464.62536,318.07164Z"/><path fill="#2c2b2d" d="M165.5,142A35.5,35.5,0,1,0,201,177.5,35.53981,35.53981,0,0,0,165.5,142Zm0,56A20.5,20.5,0,1,1,186,177.5,20.528,20.528,0,0,1,165.5,198Zm181-26A35.54,35.54,0,0,0,311,207.5a7.5,7.5,0,0,0,15,0,20.5,20.5,0,0,1,41,0,7.5,7.5,0,0,0,15,0A35.54,35.54,0,0,0,346.5,172ZM288,299.45605a28.53242,28.53242,0,0,0-28.5-28.5h-28a7.5,7.5,0,0,0,0,15h28a13.5,13.5,0,0,1,0,27,7.5,7.5,0,0,0,0,15,13.5,13.5,0,0,1,0,27h-28a7.5,7.5,0,0,0,0,15h28a28.48507,28.48507,0,0,0,19.24438-49.5A28.42867,28.42867,0,0,0,288,299.45605ZM522.78,348.03a46.57409,46.57409,0,0,0-46.76-36A227.03115,227.03115,0,1,0,256,483a224.69373,224.69373,0,0,0,102.02-24.16016A228.86673,228.86673,0,0,0,412.96,419.96a19.19375,19.19375,0,0,0,7.4-.29l67.62-15.73A46.61821,46.61821,0,0,0,522.78,348.03ZM256,468C139.1,468,44,372.8999,44,256S139.1,44,256,44s212,95.1,212,212a212.4424,212.4424,0,0,1-4.33008,42.79A46.56078,46.56078,0,0,0,381.22,337.48l15.73,67.62a19.214,19.214,0,0,0,2.94006,6.66A210.30677,210.30677,0,0,1,256,468Zm228.58008-78.67L429.74,402.09l-12.78,2.97009a4.48868,4.48868,0,0,1-5.3999-3.36011l-.31006-1.32-15.41992-66.3a31.56657,31.56657,0,0,1,61.49-14.30994A10.80038,10.80038,0,0,0,470.27,327.83a31.57146,31.57146,0,0,1,14.31006,61.5Z"/></svg>