<svg xmlns="http://www.w3.org/2000/svg" data-name="Layer 1" viewBox="0 0 512 512"><circle cx="334" cy="214.5" r="28" fill="#74563a"/><circle cx="256" cy="256" r="219.5" fill="#fdd402"/><circle cx="183" cy="214.5" r="28" fill="#74563a"/><circle cx="334" cy="214.5" r="68.5" fill="#c9e7f8"/><circle cx="418" cy="214.5" r="15" fill="#c9e7f8"/><circle cx="334" cy="214.5" r="28" fill="#e0ccbe"/><path fill="#2c2b2d" d="M416.51367,95.48633A227.00061,227.00061,0,0,0,95.48633,416.51367,226.97962,226.97962,0,0,0,410,422.75635v81.6997a7.5,7.5,0,0,0,15,0V407.5498a226.99836,226.99836,0,0,0-8.48633-312.06347Zm1.67139,126.50439c-.22608-.02051-.45386-.03467-.68506-.03467-.062,0-.12207.00782-.18384.00928a7.52991,7.52991,0,1,1,.8689.02539ZM425,235.87939a22.4964,22.4964,0,1,0-17.63843-41.19946,76,76,0,1,0,0,39.64014A22.38718,22.38718,0,0,0,410,235.52515V401.54248A211.42825,211.42825,0,0,1,256,468C139.10254,468,44,372.89746,44,256S139.10254,44,256,44s212,95.10254,212,212a210.89994,210.89994,0,0,1-43,127.84229ZM395,214.5a61,61,0,1,1-61-61A61.0688,61.0688,0,0,1,395,214.5ZM190.74512,359.999a7.5003,7.5003,0,1,0,4.50976,14.30664,201.72382,201.72382,0,0,1,60.73926-9.35546c.48242,0,.96875.002,1.45215.00585a201.79746,201.79746,0,0,1,59.29883,9.34961,7.5003,7.5003,0,1,0,4.50976-14.30664,216.90587,216.90587,0,0,0-130.50976,0ZM218.5,214.5A35.5,35.5,0,1,0,183,250,35.53965,35.53965,0,0,0,218.5,214.5ZM183,235a20.5,20.5,0,1,1,20.5-20.5A20.52325,20.52325,0,0,1,183,235Zm151-56a35.5,35.5,0,1,0,35.5,35.5A35.53965,35.53965,0,0,0,334,179Zm0,56a20.5,20.5,0,1,1,20.5-20.5A20.52325,20.52325,0,0,1,334,235ZM155,169.53711a7.5157,7.5157,0,0,0,2.35449-.37891l39.51172-13.0625,16.541,6.09375a7.49956,7.49956,0,1,0,5.18554-14.07422l-19-7a7.49425,7.49425,0,0,0-4.94726-.084l-40.52832,13.39844-8.45606-.74805a7.4999,7.4999,0,0,0-1.32226,14.94141l10,.88476C154.55957,169.52734,154.7793,169.53711,155,169.53711ZM370.97461,108.792l-16-10a7.50659,7.50659,0,0,0-7.02051-.49316l-45,20a7.49988,7.49988,0,1,0,6.0918,13.707L350.4043,113.624l12.62109,7.88868a7.50011,7.50011,0,0,0,7.94922-12.72071Z"/></svg>