<svg xmlns="http://www.w3.org/2000/svg" data-name="Layer 1" viewBox="0 0 512 512"><circle cx="261.25" cy="256" r="219.5" fill="#fdd402"/><path fill="#74563a" d="M384.5,289.5a124.90978,124.90978,0,0,1-125,125h-7a124.84973,124.84973,0,0,1-125-125,291.23618,291.23618,0,0,0,128.52,30h1.48A291.16582,291.16582,0,0,0,384.5,289.5Z"/><path fill="#e5303e" d="M191.27319,398.491c3.53479,1.99,7.16968,3.82336,10.90674,5.469A124.52787,124.52787,0,0,0,252.5,414.5h7a124.4802,124.4802,0,0,0,50.31006-10.54q5.61016-2.46936,10.9209-5.4668C306.53674,387.0166,282.83911,379.5,256.00171,379.5,229.16455,379.5,205.46484,387.01978,191.27319,398.491Z"/><path fill="#fff" d="M384.5,289.5a125.37631,125.37631,0,0,1-4.44,33.14l-.01.01a290.161,290.161,0,0,1-248.1,0h-.01a125.3945,125.3945,0,0,1-4.44-33.15,291.23618,291.23618,0,0,0,128.52,30h1.48A291.16582,291.16582,0,0,0,384.5,289.5Z"/><path fill="#4ebaea" d="M361.33344 268.05526c-3.04713-1.98726-6.74318-2.57219-9.31536 0s-1.98727 6.26823 0 9.31536c23.2884 35.7089 13.973 76.07547 43.47169 105.57412A50.5 50.5 0 1 0 466.90756 311.527C437.40891 282.0283 397.04233 291.34367 361.33344 268.05526zM150.66656 268.05526c3.04713-1.98726 6.74318-2.57219 9.31536 0s1.98727 6.26823 0 9.31536c-23.2884 35.7089-13.973 76.07547-43.47169 105.57412A50.5 50.5 0 1 1 45.09244 311.527C74.59109 282.0283 114.95767 291.34367 150.66656 268.05526z"/><path fill="none" d="M149.37 299.19A291.08143 291.08143 0 0 0 256.02 319.5h1.48a290.96768 290.96768 0 0 0 105.13-20.31M138.51 340.87c.33.73.66 1.46 1.01 2.19a1.1111 1.1111 0 0 1 .07.16c.38.78.76 1.56 1.15 2.33.11.22.23.45.35.68.38.76.78 1.52 1.19 2.28.07.14.14.28.22.41.36.67.72 1.33 1.09 1.98.47.84.95 1.66 1.44 2.48.25.43.51.85.77 1.27.49.81.99 1.61 1.51 2.4.42.66.85 1.32 1.29 1.97.1.15.19.29.3.44.4.6.81 1.2 1.23 1.79q2.055 2.925 4.26 5.71c.46.59.93 1.18 1.41 1.75q.285.36.57.69.81.99 1.65 1.95c.43.5.86.99 1.3 1.47.33.37.66.74.99 1.1q3.09 3.375 6.41 6.5c.48.46.98.92 1.47 1.36.56.52 1.12 1.02 1.69 1.52.17.15.33.3.5.44.36.32.72.63 1.09.94q.66.57 1.32 1.11c.43.36.87.72 1.3 1.07.46.37.92.74 1.39 1.1.42.33.84.66 1.27.98.49.38.98.74 1.47 1.11.3.22.59.43.89.65.32.23.65.47.97.69.31.23.63.45.95.67.47.34.95.67 1.43.99.47.32.95.64 1.43.95q.255.18.51.33c.48.33.97.64 1.46.94.08.05.16.1.24.16.82.52 1.65 1.02 2.49 1.52.82.49 1.64.97 2.47 1.43.07.04.14.08.2.12.06.03.12.07.18.1.69.39 1.39.77 2.09 1.14.23.12.46.25.69.37.6.32 1.21.64 1.82.94.25.13.49.25.73.37a1.73771 1.73771 0 0 1 .19.1c.02 0 .03.01.05.02l.24.12c.71.35 1.42.69 2.14 1.03h.01c.92.43 1.84.86 2.78 1.27A124.52758 124.52758 0 0 0 252.5 414.5h7a124.48 124.48 0 0 0 50.31-10.54c.78-.35 1.56-.7 2.34-1.07l.9-.42c.69-.32 1.37-.65 2.05-.99.29-.14.58-.29.86-.43.19-.09.37-.19.56-.29.4-.2.79-.4 1.18-.61a2.38565 2.38565 0 0 0 .22-.12.99928.99928 0 0 0 .14-.08c.14-.07.29-.15.43-.23h.01c.14-.07.29-.15.43-.23.05-.03.09-.05.14-.08.03-.01.05-.03.08-.04.51-.27 1.03-.55 1.53-.84.02-.01.05-.03.07-.04.76-.43 1.51-.86 2.26-1.31.7-.41 1.38-.82 2.07-1.25.12-.07.24-.15.36-.23.76-.46 1.52-.94 2.27-1.44.81-.52 1.62-1.06 2.41-1.61 1.6-1.09 3.16-2.22 4.7-3.38.08-.06.16-.12.23-.17.69-.53 1.38-1.07 2.06-1.6.86-.69 1.71-1.38 2.55-2.08q.96-.795 1.89-1.62c.04-.03.07-.06.11-.09.69-.6 1.37-1.21 2.05-1.83q2.145-1.95 4.18-3.99a125.27371 125.27371 0 0 0 25.6-37.02"/><path fill="none" d="M149.37 299.19A291.08143 291.08143 0 0 0 256.02 319.5h1.48a290.96768 290.96768 0 0 0 105.13-20.31M141.82 327.09a290.05411 290.05411 0 0 0 228.36-.01M320.75 398.49q-5.31006 3-10.93994 5.47A124.4802 124.4802 0 0 1 259.5 414.5h-7a124.52787 124.52787 0 0 1-50.32007-10.54q-5.61-2.47485-10.91992-5.46c14.18994-11.48 37.89-19 64.74-19S306.55005 387.02 320.75 398.49z"/><path fill="#2c2b2d" d="M256.02,327a297.10657,297.10657,0,0,1-109.40039-20.832,7.50008,7.50008,0,0,1,5.501-13.95508A282.16677,282.16677,0,0,0,256.02,312h1.48a282.22791,282.22791,0,0,0,102.37988-19.78711,7.4999,7.4999,0,1,1,5.5,13.95508A297.21141,297.21141,0,0,1,257.53906,327Z"/><path fill="#2c2b2d" d="M142.75,202a7.49974,7.49974,0,0,0,7.5-7.5,20.5,20.5,0,0,1,41,0,7.5,7.5,0,0,0,15,0,35.5,35.5,0,0,0-71,0A7.49974,7.49974,0,0,0,142.75,202Zm181,0a7.49974,7.49974,0,0,0,7.5-7.5,20.5,20.5,0,0,1,41,0,7.5,7.5,0,0,0,15,0,35.5,35.5,0,0,0-71,0A7.49974,7.49974,0,0,0,323.75,202ZM480.18243,316.17212a227.01581,227.01581,0,1,0-440.3366-10.00366c-.0188.0188-.038.03637-.05677.05517A57.97218,57.97218,0,0,0,80.80127,405.208a58.44851,58.44851,0,0,0,8.80475-.67627,226.96775,226.96775,0,0,0,342.7276.64929,57.97014,57.97014,0,0,0,47.84881-89.00891ZM261.25,44c116.897,0,212,95.10254,212,212A213.00607,213.00607,0,0,1,468.14,302.43481c-16.90869-14.71191-36.5589-19.215-55.61114-23.57251-15.82178-3.61914-32.18213-7.36035-47.09815-17.08886h-.00048c-6.522-4.25489-13.86914-3.86817-18.71534.97851-4.84716,4.84766-5.23144,12.19336-.979,18.71582A88.82332,88.82332,0,0,1,352.8645,294.864,281.923,281.923,0,0,1,257.5,312h-1.48a281.89746,281.89746,0,0,1-96.88489-17.13525,88.82121,88.82121,0,0,1,7.129-13.397c4.25244-6.52246,3.86816-13.86816-.979-18.71582-4.84766-4.84765-12.19434-5.23047-18.71534-.97851h-.00048c-14.916,9.72851-31.27637,13.46972-47.09815,17.08886-15.721,3.59571-31.84888,7.29163-46.50848,16.73731A213.40851,213.40851,0,0,1,49.25,256C49.25,139.10254,144.353,44,261.25,44Zm-5.248,328c-25.17285,0-49.06439,6.48352-65.2005,17.51465-.19323-.11914-.39068-.23609-.5827-.35547-.11719-.0791-.24072-.15918-.37744-.24609-.42871-.27051-.85791-.541-1.27832-.82129-.1211-.08106-.21778-.14258-.34375-.21582-.08643-.06153-.17481-.1211-.26416-.17871-.42725-.27539-.854-.56055-1.34082-.89161-.397-.26464-.79395-.53711-1.18311-.81836-.05078-.0371-.10254-.07324-.15429-.10937-.24317-.167-.48682-.332-.72266-.50781-.07617-.05664-.15332-.11133-.23145-.165-.20263-.13867-.40918-.28809-.61377-.43555l-1.49707-1.10156c-.28955-.21582-.57861-.43164-.86816-.65625-.0376-.0293-.07617-.05859-.11475-.08692-.37744-.28125-.7456-.57128-1.187-.918-.42285-.32422-.83642-.65625-1.21094-.958-.40478-.33008-.81933-.66895-1.28857-1.06055q-.58521-.48046-1.17041-.98535l-.08984-.07617c-.31494-.26367-.62159-.52832-.92823-.79981-.063-.05566-.11181-.09765-.17724-.15234l-.3501-.3125c-.51807-.4541-1.02734-.9082-1.53613-1.37988-.02832-.02637-.05664-.05274-.08545-.07813-.43164-.38867-.87256-.79394-1.34522-1.24609-2.06494-1.94336-4.08935-3.9961-6.019-6.10352-.30811-.33691-.61572-.68066-.98975-1.09863-.38769-.42383-.76611-.85645-1.18847-1.34668q-.75879-.86719-1.49072-1.76172c-.03858-.04687-.07764-.09375-.11719-.13965q-.18823-.21827-.37744-.457-.06811-.08643-.13916-.16992c-.42041-.5-.83106-1.0166-1.26368-1.57129q-2.09911-2.65576-4.03466-5.40918c-.376-.52832-.74268-1.06543-1.1001-1.60156-.05957-.08887-.09619-.14258-.15918-.22852l-.1709-.25683c-.39941-.58985-.79-1.18946-1.17139-1.78907-.021-.0332-.042-.06543-.06347-.09863-.46826-.71094-.918-1.43164-1.39649-2.2207-.22461-.36328-.45019-.72559-.709-1.16992-.4541-.76075-.89942-1.51953-1.35889-2.34082-.34033-.59864-.67187-1.207-1.00342-1.82325q-.10547-.19774-.22265-.38769c.04931.08008.09765.16211.10351.17187q-.05127-.10254-.10644-.20507c-.37354-.69239-.73828-1.38477-1.085-2.07715-.0166-.03321-.06739-.13184-.08448-.16407l-.28222-.55078c-.32764-.6455-.647-1.2998-.99268-2.00879l-.00055-.00122q.35175-1.39709.688-2.79419a296.19887,296.19887,0,0,0,108.84424,20.64991c.52148,0,1.04785-.001,1.56982-.00391a295.98213,295.98213,0,0,0,107.33582-20.65063q.33188,1.37145.67529,2.74316a117.29819,117.29819,0,0,1-22.96277,32.49341c-1.30712,1.30761-2.62646,2.56738-3.92968,3.752-.60743.55274-1.21387,1.09863-1.82862,1.63477q-.1311.10546-.25683.21679c-.55664.49414-1.12354.9795-1.71289,1.46875-.79248.66016-1.59424,1.31055-2.40576,1.96192l-.23731.18554c-.55811.43555-1.12207.876-1.687,1.30957l-.22168.16407c-1.56787,1.18066-3.01074,2.21875-4.43408,3.18945-.752.5166-1.50391,1.01465-2.2666,1.5127-.67725.44335-1.36231.88671-2.04883,1.30175-.09375.05664-.18653.11621-.27783.17676l-.05762.03809-.02436.01489C305.06287,378.48267,281.17389,372,256.002,372Zm49.54145,25.62512c-.2724.11634-.5445.23352-.81757.34766q-.65268.27282-1.30731.53894-.73965.29883-1.48285.58569c-.43811.17017-.87653.33936-1.31622.50415-.49561.18555-.99292.3656-1.49048.54431-.44342.15931-.88684.31812-1.33179.47181-.499.17236-.99976.33862-1.50067.50415-.44574.14721-.89142.29467-1.33869.4364-.504.15979-1.00964.31262-1.51544.46545-.44751.135-.89483.271-1.34381.40064-.50964.147-1.02112.28711-1.53259.42712-.44849.1228-.89661.24695-1.34644.36438-.51464.13428-1.03131.261-1.54766.38806-.45.11084-.89948.22351-1.35077.329-.5199.12134-1.04175.23438-1.5633.34863-.45086.09888-.90118.2-1.35339.29334-.52527.10852-1.05255.20813-1.57947.30945-.45111.08667-.90155.17614-1.35388.25757-.53339.09582-1.06891.18237-1.604.27075-.44867.07422-.89667.1521-1.3465.22094-.54089.083-1.084.156-1.62653.23145-.44684.062-.89282.1283-1.34076.1853-.55328.07044-1.10882.13013-1.66369.19263-.43915.04956-.87732.10388-1.31751.14844-.57538.05835-1.15307.10522-1.7301.15527-.42194.03638-.84277.07825-1.26556.11035-.603.04566-1.20832.07923-1.813.11573-.40058.02417-.79993.05432-1.20124.07446-.65966.0332-1.32165.05346-1.98333.07568-.3476.01172-.694.03-1.04218.0387q-1.51511.03791-3.03662.03845h-7q-1.5217,0-3.0368-.03845c-.35248-.00891-.70325-.02722-1.05524-.03919-.65772-.02221-1.31574-.04223-1.97156-.07519-.40546-.02027-.80908-.05078-1.21374-.0752-.60041-.03637-1.20142-.06958-1.80011-.115-.42267-.032-.84333-.07373-1.26508-.11023-.579-.05-1.15845-.09717-1.73578-.15564-.42743-.04345-.853-.09619-1.27948-.144-.5697-.06409-1.13989-.12561-1.70788-.19788-.42871-.05456-.85547-.118-1.28321-.17736-.56262-.07788-1.12573-.15381-1.68664-.23987-.42823-.06568-.85449-.13977-1.28162-.21021-.5592-.09216-1.11877-.18274-1.67621-.28308-.4226-.07605-.84338-.15991-1.26489-.2406-.55939-.10705-1.119-.21313-1.67657-.32849-.41571-.08594-.82966-.17895-1.24433-.26953-.56134-.12244-1.1228-.24451-1.68213-.37537-.40857-.09558-.81555-.19763-1.223-.29773-.56165-.13769-1.12329-.27575-1.68286-.422-.4043-.10559-.807-.21741-1.21014-.3274-.55988-.15283-1.11957-.30639-1.67731-.46765-.3996-.11548-.79779-.23657-1.19629-.35644-.558-.168-1.11566-.33716-1.67139-.51343-.3963-.12586-.7912-.25659-1.18628-.38672-.55383-.18225-1.10717-.36645-1.65869-.55725-.39642-.13721-.79169-.27893-1.18689-.42041-.54455-.195-1.08844-.39221-1.63067-.59558-.40186-.15076-.80249-.30542-1.20307-.4607q-.79293-.30742-1.583-.62524-.62136-.2514-1.24023-.51123c-.27881-.11645-.5567-.23633-.8349-.355C219.69885,390.866,237.33521,387,256.002,387,274.666,387,292.30054,390.86511,305.5434,397.62512ZM257.46094,343c-.498.00293-.99219.00391-1.48975.00391a281.40376,281.40376,0,0,1-105.41455-20.4231c1.06262-4.52185,2.20178-9.06616,3.53717-13.58935A296.82477,296.82477,0,0,0,256.02,327h1.519a296.91143,296.91143,0,0,0,100.36682-18.00952c1.33515,4.52222,2.47406,9.06543,3.5365,13.58618A281.12311,281.12311,0,0,1,257.46094,343ZM50.39551,377.64063a42.99847,42.99847,0,0,1,0-60.80958q1.30864-1.30865,2.65539-2.50585c.06824-.05957.136-.11951.20185-.18152,14.20477-12.5708,31.41229-16.50818,49.56317-20.6593,16.15381-3.69434,32.82812-7.50879,49.085-17.34766-9.83936,16.25683-13.65332,32.93164-17.34815,49.085-4.43408,19.38574-8.62207,37.69531-23.3457,52.41895A43.04925,43.04925,0,0,1,50.39551,377.64063ZM261.25,468a211.4714,211.4714,0,0,1-155.8186-68.2561,57.71982,57.71982,0,0,0,16.38208-11.49585,82.92284,82.92284,0,0,0,18.41314-28.374c.26239.41712.51667.8396.78754,1.252.44824.7041.90772,1.4082,1.38867,2.11914.10742.16211.21289.31933.32715.48047.41992.62793.84912,1.25488,1.26318,1.83593,1.4209,2.02246,2.93946,4.05762,4.48243,6.01075.49511.63476,1.001,1.26953,1.51709,1.88476q.31567.39551.63134.76367c.57422.7002,1.15723,1.38868,1.71045,2.02051.481.55859.96192,1.10645,1.3877,1.57129.35254.39453.70508.78906,1.05615,1.17188,2.17871,2.37988,4.46729,4.70019,6.75293,6.85058.52246.501,1.06592,1.00195,1.59961,1.48242.59717.55274,1.19385,1.08594,1.77832,1.59864l.11035.09863c.15381.13867.30664.27344.46192.40625.374.33008.74755.65234,1.13085.97363.4751.40918.94825.80664,1.36182,1.14453.45459.38184.91992.76172,1.41406,1.16407.50586.40722,1.01221.81347,1.457,1.15332.45167.35546.90381.71,1.36573,1.05468.33935.2627.67871.5166,1.01806.76953l.47217.3545c.02832.02148.05664.043.08545.06347l1.16309.84766c.25683.18457.51709.37109.77246.54883.32324.23633.65381.46582.98486.69433.52637.37891,1.05908.7461,1.53076,1.0586.48389.33008.97705.65918,1.47071.97949.228.15723.45605.30469.68359.44434.45312.29882.918.59472,1.43115.91894.102.07031.20557.13867.311.2041.8623.53809,1.73535,1.07324,2.60791,1.59278.87451.52246,1.748,1.0332,2.57373,1.49218.11035.06739.22217.13282.33594.19532.05957.03418.11962.06738.17968.0996.72412.40918,1.459.80762,2.22608,1.2129l.6372.34277c.625.333,1.26075.666,1.89649.98144.22314.11914.44336.2295.66455.334.0415.02148.084.04394.126.06543.146.0791.29492.15332.44531.22265l.10937.05469c.74512.36719,1.48975.72363,2.24561,1.08106q.12891.06151.26025.11718c.90528.42286,1.81153.84278,2.71387,1.23633A131.487,131.487,0,0,0,252.5,422h7q1.73969,0,3.472-.04407A131.27535,131.27535,0,0,0,312.832,410.82422l.02606-.01184.02033-.00867c.64239-.28833,1.27728-.57642,1.8949-.86328q.90718-.41748,1.81146-.84961c.62591-.29443,1.24823-.59155,1.86932-.90234.0495-.02442.098-.05115.147-.07642.14379-.072.28631-.14746.42993-.22.29266-.14465.58453-.291.84637-.42529.44629-.22364.88184-.44629,1.31738-.67969.11866-.06055.25782-.13379.41358-.22266l.1084-.06152c.05908-.03125.11816-.06348.17773-.09473.24414-.123.501-.26074.74268-.39843l.02588-.01368c.59375-.31445,1.19824-.64062,1.78027-.97851l.00488-.00293c.81446-.46094,1.61768-.92188,2.35254-1.36328.73682-.43164,1.45361-.86328,2.17969-1.31543.15723-.09375.31543-.19531.47656-.30078.78955-.48047,1.57764-.98828,2.35547-1.49707.8584-.56055,1.70605-1.12305,2.53223-1.69043,1.59814-1.08985,3.22949-2.2627,4.95166-3.56055l.16455-.12207c.05127-.03711.10205-.0752.15185-.11328.61328-.46973,1.22608-.94824,1.83252-1.42188l.27783-.21679c.02735-.02051.0542-.042.08106-.06348.89648-.71973,1.78125-1.43848,2.64258-2.15625q.9939-.82325,1.95849-1.67578.08864-.07177.17481-.14649,1.10156-.958,2.17431-1.9414c1.47022-1.33594,2.96387-2.76172,4.439-4.23731A132.61114,132.61114,0,0,0,371.78149,359.894a82.91323,82.91323,0,0,0,18.405,28.354,57.63456,57.63456,0,0,0,24.10212,14.45007A211.68285,211.68285,0,0,1,261.25,468Zm200.35449-90.35937a43.04925,43.04925,0,0,1-60.81152,0c-14.63-14.63-18.858-32.801-23.26117-52.04969l-.00873-.038-.0758-.3313c-3.69483-16.15332-7.50879-32.8291-17.34815-49.085,16.25733,9.83887,32.93115,13.65332,49.085,17.34766,19.38574,4.43359,37.6958,8.62207,52.42041,23.34667a42.99847,42.99847,0,0,1,0,60.80958Z"/><path fill="none" d="M384.5,289.5a125.12511,125.12511,0,0,1-63.75,108.99q-5.31006,3-10.93994,5.47A124.4802,124.4802,0,0,1,259.5,414.5h-7a124.52787,124.52787,0,0,1-50.32007-10.54q-5.61-2.47485-10.91992-5.46a124.77521,124.77521,0,0,1-63.76-109,291.23534,291.23534,0,0,0,128.52,30h1.48A291.16558,291.16558,0,0,0,384.5,289.5Z"/><path fill="none" d="M384.5 289.5a125.37631 125.37631 0 0 1-4.44 33.14l-.01.01a290.161 290.161 0 0 1-248.1 0h-.01a125.3945 125.3945 0 0 1-4.44-33.15 291.23618 291.23618 0 0 0 128.52 30h1.48A291.16582 291.16582 0 0 0 384.5 289.5zM320.75 398.49q-5.31006 3-10.93994 5.47A124.4802 124.4802 0 0 1 259.5 414.5h-7a124.52787 124.52787 0 0 1-50.32007-10.54q-5.61-2.47485-10.91992-5.46c14.18994-11.48 37.89-19 64.74-19S306.55005 387.02 320.75 398.49z"/></svg>