<svg xmlns="http://www.w3.org/2000/svg" data-name="Layer 1" viewBox="0 0 512 512"><path fill="#fdd402" d="M306.9,469.56C403.58,446.61,475.5,359.71,475.5,256c0-121.23-98.27-219.5-219.5-219.5S36.5,134.77,36.5,256c0,103.71,71.92,190.61,168.6,213.56Z"/><circle cx="165.5" cy="177.5" r="28" fill="#74563a"/><circle cx="346.5" cy="177.5" r="28" fill="#74563a"/><path fill="#74563a" d="M310,405.87A124.81615,124.81615,0,0,0,384.5,291.5a291.16582,291.16582,0,0,1-127,30h-1.48a291.23581,291.23581,0,0,1-128.52-30A124.81622,124.81622,0,0,0,202,405.88Z"/><path fill="#e5303e" d="M310,339V449.30625C310,480.3377,285.82,505.5,256,505.5s-54-25.1623-54-56.19375V339Z"/><path fill="#2c2b2d" d="M416.51465,95.48535A227,227,0,0,0,29,256,224.54335,224.54335,0,0,0,78.68994,397.752a228.10472,228.10472,0,0,0,120.87543,78.16,61.48062,61.48062,0,0,0,112.86926,0,228.10472,228.10472,0,0,0,120.87543-78.16,227.01971,227.01971,0,0,0-16.79541-302.2666ZM310,338a7.50006,7.50006,0,0,0-7.5,7.5v60.46c.00018.01581-.00031.03143,0,.04724V451.5a46.5,46.5,0,0,1-93,0V406.02063c.00024-.015-.00018-.03,0-.04492V345.5a7.5,7.5,0,0,0-15,0v48.21326a117.16915,117.16915,0,0,1-58.88623-90.14734A299.64178,299.64178,0,0,0,256.02,329h1.519a299.80874,299.80874,0,0,0,118.84668-25.43555A117.5395,117.5395,0,0,1,317.5,393.69391V345.5A7.50006,7.50006,0,0,0,310,338Zm7.01587,121.08179A61.74178,61.74178,0,0,0,317.5,451.5V410.64783A132.28852,132.28852,0,0,0,392,291.5a7.49991,7.49991,0,0,0-10.81885-6.72559A284.51645,284.51645,0,0,1,257.5,314h-1.48a284.55042,284.55042,0,0,1-125.2002-29.2251A7.4999,7.4999,0,0,0,120,291.5a132.27811,132.27811,0,0,0,74.5,119.15277V451.5a61.74178,61.74178,0,0,0,.48413,7.58179A211.11234,211.11234,0,0,1,44,256C44,139.10254,139.103,44,256,44s212,95.10254,212,212A211.11234,211.11234,0,0,1,317.01587,459.08179ZM165.5,142A35.5,35.5,0,1,0,201,177.5,35.54028,35.54028,0,0,0,165.5,142Zm0,56A20.5,20.5,0,1,1,186,177.5,20.52325,20.52325,0,0,1,165.5,198Zm181-56A35.5,35.5,0,1,0,382,177.5,35.54028,35.54028,0,0,0,346.5,142Zm0,56A20.5,20.5,0,1,1,367,177.5,20.52325,20.52325,0,0,1,346.5,198ZM256,344a7.50006,7.50006,0,0,0-7.5,7.5v74a7.5,7.5,0,0,0,15,0v-74A7.50006,7.50006,0,0,0,256,344Z"/></svg>