<svg xmlns="http://www.w3.org/2000/svg" data-name="Layer 1" viewBox="0 0 512 512"><path fill="#fdd402" d="M475.5,256a218.91239,218.91239,0,0,1-71.93,162.49q-6.12,5.56494-12.65,10.65991a219.54606,219.54606,0,0,1-270.43-.46q-6.375-5.00976-12.37-10.48A219.80868,219.80868,0,0,1,38.5,226.28Q39.56494,218.33,41.21,210.58C62.12,111.1499,150.34009,36.5,256,36.5c107.27,0,196.56,76.93994,215.7,178.6499q1.5,7.89,2.41,15.9701A222.25281,222.25281,0,0,1,475.5,256Z"/><circle cx="165.5" cy="188.5" r="28" fill="#74563a"/><circle cx="346.5" cy="188.5" r="28" fill="#74563a"/><path fill="#fff" d="M328.296,400.43856H183.704a30,30,0,0,1-29.91511-27.74484l-5.4769-72.65218a30,30,0,0,1,29.91512-32.25515H333.77291A30,30,0,0,1,363.688,300.04154l-5.4769,72.65218A30,30,0,0,1,328.296,400.43856Z"/><path fill="#2c2b2d" d="M201,187.8877a35.5,35.5,0,1,0-35.5,35.5A35.54,35.54,0,0,0,201,187.8877Zm-56,0a20.5,20.5,0,1,1,20.5,20.5A20.52325,20.52325,0,0,1,145,187.8877Zm201.5,35.5a35.5,35.5,0,1,0-35.5-35.5A35.54,35.54,0,0,0,346.5,223.3877Zm0-56a20.5,20.5,0,1,1-20.5,20.5A20.52325,20.52325,0,0,1,346.5,167.3877Zm70.01318-71.90137A227.00026,227.00026,0,0,0,95.48682,416.51367,227.00026,227.00026,0,0,0,416.51318,95.48633ZM256,44c102.054,0,187.49023,72.48706,207.54321,168.67749l-102.196,59.0863c-.0271-.02941-.05194-.06066-.07916-.09a37.61458,37.61458,0,0,0-27.49512-12H178.22705A37.62323,37.62323,0,0,0,154.4834,268.167L49.32507,208.69922C70.87537,114.49524,155.35767,44,256,44ZM356.209,298.86523l-5.47705,72.65235a22.59681,22.59681,0,0,1-22.436,20.80859H183.7041a22.59762,22.59762,0,0,1-22.43652-20.80859L155.791,298.86523a22.50011,22.50011,0,0,1,22.436-24.1914H333.773a22.50011,22.50011,0,0,1,22.436,24.1914ZM44,256a212.76578,212.76578,0,0,1,2.37622-31.73621l98.54,55.7251a37.59013,37.59013,0,0,0-4.08325,20.0033l5.477,72.65234a37.121,37.121,0,0,0,5.16113,16.26074l-40.8501,21.24683A211.42991,211.42991,0,0,1,44,256ZM256,468a210.98592,210.98592,0,0,1-133.25488-47.247l39.2561-20.41784a37.26344,37.26344,0,0,0,21.70288,6.991H328.2959a37.17871,37.17871,0,0,0,19.14514-5.31933L388.535,421.333A210.9725,210.9725,0,0,1,256,468Zm144.90723-57.40869c-.08594-.04443-.16706-.09473-.25537-.13623l-41.44147-19.48963a37.17484,37.17484,0,0,0,6.47955-18.32092l5.47705-72.65234a37.50994,37.50994,0,0,0-2.07593-15.37854l97.12183-56.15247a211.83254,211.83254,0,0,1-65.30566,182.13013Z"/></svg>