<svg xmlns="http://www.w3.org/2000/svg" data-name="Layer 1" viewBox="0 0 512 512"><path fill="#fdd402" d="M475.5,256c0,121.23-98.27,219.5-219.5,219.5S36.5,377.23,36.5,256,134.77,36.5,256,36.5A219.42158,219.42158,0,0,1,475.29,246.37988Q475.5,251.16516,475.5,256Z"/><path fill="#e0e0e2" d="M475.29,246.37988,335.9,106.99l36.88-36.88013A219.36184,219.36184,0,0,1,475.29,246.37988Z"/><circle cx="165.5" cy="194.5" r="28" fill="#74563a"/><circle cx="346.5" cy="194.5" r="28" fill="#74563a"/><path fill="#e0e0e2" d="M435.37012,129.45652H76.63a220.65231,220.65231,0,0,1,65.26-61H370.10986A220.65308,220.65308,0,0,1,435.37012,129.45652Z"/><path fill="#2c2b2d" d="M201,194.5A35.5,35.5,0,1,0,165.5,230,35.54,35.54,0,0,0,201,194.5ZM165.5,215A20.5,20.5,0,1,1,186,194.5,20.52325,20.52325,0,0,1,165.5,215Zm181-56A35.5,35.5,0,1,0,382,194.5,35.54,35.54,0,0,0,346.5,159Zm0,56A20.5,20.5,0,1,1,367,194.5,20.52325,20.52325,0,0,1,346.5,215Zm-16.87061,99.44629a131.80223,131.80223,0,0,0-101.30029,6.15918l-6.28613,3.07812a130.85543,130.85543,0,0,0-42.96631,33.55664,7.5,7.5,0,1,0,11.48828,9.64454,115.95582,115.95582,0,0,1,38.07471-29.7295l6.28613-3.07812a115.93368,115.93368,0,0,1,46.82373-11.84473A117.14463,117.14463,0,0,1,324.729,328.624a7.50036,7.50036,0,0,0,4.90039-14.17773ZM441.49463,125.127q-3.38883-4.79479-6.99347-9.38452a227.08579,227.08579,0,0,0-296.51532-53.6897,229.5682,229.5682,0,0,0-19.2674,13.12793q-4.6245,3.509-9.05285,7.24122-2.21393,1.86621-4.378,3.7871a227.47042,227.47042,0,0,0-34.78223,38.918l-.00348.00586A227.00781,227.00781,0,0,0,416.51465,416.51074a227.03515,227.03515,0,0,0,24.98-291.38379Zm24.46191,101.3125-89.4834-89.4834h54.9693A210.0755,210.0755,0,0,1,465.95654,226.43945ZM256,43.99609a212.00943,212.00943,0,0,1,83.17767,16.96H172.82275A212.00586,212.00586,0,0,1,256,43.99609ZM92.3139,121.26416c.34876-.42432.70154-.84424,1.05329-1.26538q1.10733-1.32533,2.23407-2.63159.54675-.63355,1.09668-1.26367,1.22745-1.39931,2.47961-2.77393c.28845-.31763.57318-.63867.86347-.95435q1.69455-1.84241,3.42865-3.64379c.16485-.17115.33386-.33765.49926-.50806q1.48518-1.52967,2.99982-3.02857c.37122-.36718.74677-.72973,1.12061-1.094q1.24776-1.21618,2.5144-2.41162.60534-.57055,1.21436-1.13745,1.32935-1.23341,2.68133-2.44238c.3429-.30762.68268-.61817,1.02759-.92334q1.87279-1.65675,3.78284-3.27247c.08026-.06762.16253-.13305.24292-.20068q1.78051-1.4967,3.5968-2.95361c.39666-.31861.798-.63208,1.19708-.94824q1.37512-1.08875,2.76849-2.157.67356-.51525,1.35138-1.02588,1.41174-1.06237,2.84412-2.10131c.40576-.29493.809-.59278,1.217-.88526q4.06329-2.90955,8.27771-5.63989c.42072-.27271.84644-.53931,1.26941-.80884.6535-.417,1.31305-.82641,1.97192-1.23682H367.95416c.6402.39893,1.281.79688,1.91614,1.20166.44855.28614.89984.56885,1.34589.85767q2.09407,1.35681,4.15435,2.7544c.0412.02807.08143.05737.12262.08544q2.002,1.366,3.96607,2.7771c.42261.30249.84015.61084,1.26031.91651q1.40763,1.02356,2.798,2.06738.694.52223,1.38324,1.04981,1.37631,1.05358,2.73291,2.12939c.40857.32349.81933.64453,1.2254.971q1.7861,1.43554,3.54028,2.907c.09851.08276.19928.16309.29761.24609q1.90659,1.60767,3.77106,3.26221c.35107.31055.697.62671,1.046.9397q1.34033,1.20153,2.66144,2.42456.61679.572,1.22821,1.15039,1.25985,1.18762,2.49957,2.39722c.37762.36792.757.73413,1.132,1.105q1.50163,1.48534,2.97345,3.00195c.17431.17944.35229.35522.526.5354q1.73126,1.79517,3.4198,3.63428c.29693.32275.58819.65136.88324.97632q1.23953,1.36449,2.45825,2.75024.5592.6372,1.11218,1.28125,1.11512,1.292,2.21045,2.60376c.35974.43066.72058.86011,1.07715,1.29394.18487.22486.3645.45484.54852.68042H91.7561C91.94324,121.72656,92.12585,121.49268,92.3139,121.26416ZM256,467.99609c-116.897,0-212-95.10254-212-212a210.54535,210.54535,0,0,1,36.558-119.04h274.7013L467.89581,249.59253c.06293,2.13037.10419,4.26416.10419,6.40356C468,372.89355,372.897,467.99609,256,467.99609Z"/></svg>