<svg xmlns="http://www.w3.org/2000/svg" data-name="Layer 1" viewBox="0 0 512 512"><circle cx="256" cy="256" r="219.5" fill="#fdd402"/><circle cx="165.5" cy="194.5" r="28" fill="#74563a"/><circle cx="346.5" cy="194.5" r="28" fill="#74563a"/><circle cx="256" cy="344.5" r="75.5" fill="#74563a"/><path fill="#2c2b2d" d="M201,194.5A35.5,35.5,0,1,0,165.5,230,35.54028,35.54028,0,0,0,201,194.5ZM165.5,215A20.5,20.5,0,1,1,186,194.5,20.52325,20.52325,0,0,1,165.5,215Zm181-56A35.5,35.5,0,1,0,382,194.5,35.54028,35.54028,0,0,0,346.5,159Zm0,56A20.5,20.5,0,1,1,367,194.5,20.52325,20.52325,0,0,1,346.5,215ZM256,261.5a83,83,0,1,0,83,83A83.094,83.094,0,0,0,256,261.5Zm0,151a68,68,0,1,1,68-68A68.07728,68.07728,0,0,1,256,412.5ZM416.51318,95.48682A227.00009,227.00009,0,0,0,95.48682,416.51367,227.00009,227.00009,0,0,0,416.51318,95.48682ZM256,468C139.103,468,44,372.89746,44,256,44,139.103,139.103,44,256,44s212,95.103,212,212C468,372.89746,372.897,468,256,468Z"/></svg>