<svg xmlns="http://www.w3.org/2000/svg" data-name="Layer 1" viewBox="0 0 512 512"><circle cx="256" cy="256" r="219.5" fill="#fdd402"/><path fill="#74563a" d="M330.04229,348.70214c-11.36765-13.04185-29.15907-21.94454-47.24979-25.39113-24.5483-4.67687-52.58284-3.01634-75.78085,6.76361-26.11371,11.00918-49.69178,41.92558-30.26808,69.534,4.09431,5.81951,10.52316,7.62446,16.25587,4.64808,15.157-7.86935,40.06227-17.35038,70.57769-14.37772a126.96956,126.96956,0,0,1,54.88266,19.10284c7.22063,4.51243,16.0602.5444,19.88282-9.011C346.52325,379.5218,341.607,361.97,330.04229,348.70214Z"/><circle cx="160.5" cy="217.942" r="56.5" fill="#fff"/><circle cx="160.5" cy="217.942" r="17" fill="#74563a"/><circle cx="351.5" cy="217.942" r="56.5" fill="#fff"/><circle cx="351.5" cy="217.942" r="17" fill="#74563a"/><path fill="#2c2b2d" d="M416.51367,95.48682A227.00026,227.00026,0,0,0,95.48633,416.51318,227.00026,227.00026,0,0,0,416.51367,95.48682ZM256,468C139.10254,468,44,372.897,44,256S139.10254,44,256,44s212,95.103,212,212S372.89746,468,256,468Zm79.69629-124.22559c-11.96875-13.73144-30.73926-23.875-51.5-27.83105-27.5625-5.25-56.75879-2.61865-80.09766,7.22021-19.377,8.16895-35.15429,24.80323-40.19629,42.37842-3.8457,13.40625-1.52636,26.67822,6.707,38.38233,6.1914,8.79931,16.81933,11.67578,25.8457,6.98877,14.82422-7.69678,38.37207-16.30176,66.39453-13.56934a118.62611,118.62611,0,0,1,51.63574,17.99854,19.00154,19.00154,0,0,0,16.23145,2.03906c6.38867-2.0874,11.70605-7.418,14.58984-14.625,8.47949-21.19678,5.06641-42.144-9.61133-58.98242Zm-4.31641,53.41016c-1.21093,3.02539-3.20019,5.24512-5.32226,5.93848a4.092,4.092,0,0,1-3.623-.50147,133.4945,133.4945,0,0,0-58.12988-20.20752q-6.00439-.58448-12.05664-.58349a136.21974,136.21974,0,0,0-62.70508,15.77c-3.21,1.66943-5.55469-.7295-6.666-2.30762-5.61132-7.97608-7.14355-16.59424-4.55664-25.61475,3.78125-13.17871,16.48242-26.31689,31.60547-32.69238,20.6836-8.72119,46.72949-11.02051,71.46387-6.30713,17.26562,3.28955,33.33984,11.86963,42.998,22.95117l.001.00049C332.02246,362.38867,339.43262,377.0542,331.37988,397.18457ZM160.5,193.44238a24.5,24.5,0,1,0,24.5,24.5A24.52752,24.52752,0,0,0,160.5,193.44238Zm0,34a9.5,9.5,0,1,1,9.5-9.5A9.51081,9.51081,0,0,1,160.5,227.44238Zm191-34a24.5,24.5,0,1,0,24.5,24.5A24.52752,24.52752,0,0,0,351.5,193.44238Zm0,34a9.5,9.5,0,1,1,9.5-9.5A9.51081,9.51081,0,0,1,351.5,227.44238Zm-127-9.5a64,64,0,1,0-64,64A64.07239,64.07239,0,0,0,224.5,217.94238Zm-64,49a49,49,0,1,1,49-49A49.05567,49.05567,0,0,1,160.5,266.94238Zm191-113a64,64,0,1,0,64,64A64.07239,64.07239,0,0,0,351.5,153.94238Zm0,113a49,49,0,1,1,49-49A49.05567,49.05567,0,0,1,351.5,266.94238ZM117.70313,145.7749a7.4991,7.4991,0,0,0,10.52929-1.27929c1.65821-2.1167,16.90235-20.63965,41.16211-19.37549a47.22981,47.22981,0,0,1,24.96777,8.82519,7.5,7.5,0,1,0,8.61915-12.27636,62.85176,62.85176,0,0,0-32.80469-11.52832c-31.82617-1.66456-51.60254,22.36083-53.75293,25.105A7.50077,7.50077,0,0,0,117.70313,145.7749Zm209.93457-5.82959a47.23009,47.23009,0,0,1,24.96875-8.82519c24.25878-1.26953,39.50293,17.25879,41.16113,19.37549a7.50009,7.50009,0,0,0,11.80859-9.25c-2.14941-2.74512-21.87988-26.77979-53.75195-25.105A62.852,62.852,0,0,0,319.01855,127.669a7.5,7.5,0,1,0,8.61915,12.27636Z"/></svg>