<svg xmlns="http://www.w3.org/2000/svg" data-name="Layer 1" viewBox="0 0 512 512"><circle cx="256" cy="256" r="219.5" fill="#fdd402"/><circle cx="160.5" cy="224.652" r="56.5" fill="#fff"/><circle cx="351.5" cy="224.652" r="56.5" fill="#fff"/><circle cx="160.5" cy="224.652" r="17" fill="#74563a"/><circle cx="351.5" cy="224.652" r="17" fill="#74563a"/><path fill="#2c2b2d" d="M160.5,200.15234a24.5,24.5,0,1,0,24.5,24.5A24.52752,24.52752,0,0,0,160.5,200.15234Zm0,34a9.5,9.5,0,1,1,9.5-9.5A9.5108,9.5108,0,0,1,160.5,234.15234Zm191-34a24.5,24.5,0,1,0,24.5,24.5A24.52752,24.52752,0,0,0,351.5,200.15234Zm0,34a9.5,9.5,0,1,1,9.5-9.5A9.5108,9.5108,0,0,1,351.5,234.15234Zm-191-73.5a64,64,0,1,0,64,64A64.07239,64.07239,0,0,0,160.5,160.65234Zm0,113a49,49,0,1,1,49-49A49.05567,49.05567,0,0,1,160.5,273.65234Zm191-113a64,64,0,1,0,64,64A64.07239,64.07239,0,0,0,351.5,160.65234Zm0,113a49,49,0,1,1,49-49A49.05567,49.05567,0,0,1,351.5,273.65234Zm65.01318-178.166A227.00026,227.00026,0,0,0,95.48682,416.51367,227.00026,227.00026,0,0,0,416.51318,95.48633ZM256,468C139.103,468,44,372.89746,44,256S139.103,44,256,44s212,95.10254,212,212S372.897,468,256,468ZM117.70361,152.48535a7.50032,7.50032,0,0,0,10.5293-1.2793c1.6582-2.11718,16.90137-20.64843,41.16162-19.376a47.23383,47.23383,0,0,1,24.96729,8.82519,7.49958,7.49958,0,1,0,8.61914-12.27539,62.86,62.86,0,0,0-32.80469-11.53027c-31.84131-1.6377-51.60156,22.36133-53.75195,25.10644A7.50035,7.50035,0,0,0,117.70361,152.48535Zm209.93457-5.83008a47.234,47.234,0,0,1,24.96778-8.82519c24.25683-1.2666,39.50342,17.25879,41.16113,19.376a7.50009,7.50009,0,1,0,11.80859-9.25c-2.15039-2.74511-21.92968-26.748-53.75146-25.10644A62.86008,62.86008,0,0,0,319.019,134.37988a7.49958,7.49958,0,1,0,8.61914,12.27539Zm-48.9624,207.22266a93.04744,93.04744,0,0,1-45.3501,0,7.5,7.5,0,1,0-3.65136,14.54883,108.36184,108.36184,0,0,0,23.63964,3.22363q1.33813.03223,2.67481.0332a108.28633,108.28633,0,0,0,26.33545-3.25683,7.49966,7.49966,0,1,0-3.64844-14.54883Z"/></svg>