<svg xmlns="http://www.w3.org/2000/svg" data-name="Layer 1" viewBox="0 0 512 512"><circle cx="256" cy="256" r="219.5" fill="#fdd402"/><circle cx="165.5" cy="194.5" r="28" fill="#74563a"/><circle cx="346.5" cy="194.5" r="28" fill="#74563a"/><path fill="#fff" d="M389.5,335.5a39.41,39.41,0,0,1-.72,7.5,39.00554,39.00554,0,0,1-38.28,31.5h-189a39,39,0,1,1,0-78h189a38.955,38.955,0,0,1,39,39Z"/><path fill="#2c2b2d" d="M165.5,230A35.5,35.5,0,1,0,130,194.5,35.54,35.54,0,0,0,165.5,230Zm0-56A20.5,20.5,0,1,1,145,194.5,20.52325,20.52325,0,0,1,165.5,174Zm181,56A35.5,35.5,0,1,0,311,194.5,35.54,35.54,0,0,0,346.5,230Zm0-56A20.5,20.5,0,1,1,326,194.5,20.52325,20.52325,0,0,1,346.5,174Zm70.01367-78.51318A227.00044,227.00044,0,0,0,95.48633,416.51367,227.00044,227.00044,0,0,0,416.51367,95.48682ZM256,468C139.10254,468,44,372.89746,44,256,44,139.103,139.10254,44,256,44s212,95.103,212,212C468,372.89746,372.89746,468,256,468Zm94.5-179h-189a46.5,46.5,0,0,0,0,93h189a46.5,46.5,0,0,0,0-93Zm0,78h-189a31.55081,31.55081,0,0,1-30.59058-24H381.09058A31.55081,31.55081,0,0,1,350.5,367ZM130.90942,328A31.55081,31.55081,0,0,1,161.5,304h189a31.55081,31.55081,0,0,1,30.59058,24Z"/></svg>