<svg xmlns="http://www.w3.org/2000/svg" data-name="Layer 1" viewBox="0 0 512 512"><circle cx="268.25" cy="256" r="219.5" fill="#fdd402"/><path fill="none" d="M396.75,290.5A125.12511,125.12511,0,0,1,333,399.49q-5.31006,3-10.93994,5.47A124.4802,124.4802,0,0,1,271.75,415.5h-7a124.52787,124.52787,0,0,1-50.32007-10.54q-5.61-2.47485-10.91992-5.46a124.77521,124.77521,0,0,1-63.76-109,291.23534,291.23534,0,0,0,128.52,30h1.48A291.16558,291.16558,0,0,0,396.75,290.5Z"/><path fill="none" d="M396.75 290.5a125.37631 125.37631 0 0 1-4.44 33.14l-.01.01a290.161 290.161 0 0 1-248.1 0h-.01a125.3945 125.3945 0 0 1-4.44-33.15 291.23618 291.23618 0 0 0 128.52 30h1.48A291.16582 291.16582 0 0 0 396.75 290.5zM333 399.49q-5.31006 3-10.93994 5.47A124.4802 124.4802 0 0 1 271.75 415.5h-7a124.52787 124.52787 0 0 1-50.32007-10.54q-5.61-2.47485-10.91992-5.46c14.18994-11.48 37.89-19 64.74-19S318.80005 388.02 333 399.49z"/><path fill="#74563a" d="M396.75,290.5a124.90978,124.90978,0,0,1-125,125h-7a124.84973,124.84973,0,0,1-125-125,291.23618,291.23618,0,0,0,128.52,30h1.48A291.16582,291.16582,0,0,0,396.75,290.5Z"/><path fill="#e5303e" d="M203.52319,399.491c3.53479,1.99,7.16968,3.82336,10.90674,5.469A124.52787,124.52787,0,0,0,264.75,415.5h7a124.4802,124.4802,0,0,0,50.31006-10.54q5.61016-2.46936,10.9209-5.4668C318.78674,388.0166,295.08911,380.5,268.25171,380.5,241.41455,380.5,217.71484,388.01978,203.52319,399.491Z"/><path fill="#fff" d="M396.75,290.5a125.37631,125.37631,0,0,1-4.44,33.14l-.01.01a290.161,290.161,0,0,1-248.1,0h-.01a125.3945,125.3945,0,0,1-4.44-33.15,291.23618,291.23618,0,0,0,128.52,30h1.48A291.16582,291.16582,0,0,0,396.75,290.5Z"/><path fill="#4ebaea" d="M81.337,55.84783c-.74945-3.55986-2.94934-6.587-6.587-6.587s-5.83751,3.0271-6.587,6.587C59.38043,97.56522,24.25,119.52174,24.25,161.23913a50.5,50.5,0,0,0,101,0C125.25,119.52174,90.11957,97.56522,81.337,55.84783Z"/><path fill="none" d="M396.75,290.5A125.12511,125.12511,0,0,1,333,399.49q-5.31006,3-10.93994,5.47A124.4802,124.4802,0,0,1,271.75,415.5h-7a124.52787,124.52787,0,0,1-50.32007-10.54q-5.61-2.47485-10.91992-5.46a124.77521,124.77521,0,0,1-63.76-109,291.23534,291.23534,0,0,0,128.52,30h1.48A291.16558,291.16558,0,0,0,396.75,290.5Z"/><path fill="none" d="M396.75 290.5a125.37631 125.37631 0 0 1-4.44 33.14l-.01.01a290.161 290.161 0 0 1-248.1 0h-.01a125.3945 125.3945 0 0 1-4.44-33.15 291.23618 291.23618 0 0 0 128.52 30h1.48A291.16582 291.16582 0 0 0 396.75 290.5zM333 399.49q-5.31006 3-10.93994 5.47A124.4802 124.4802 0 0 1 271.75 415.5h-7a124.52787 124.52787 0 0 1-50.32007-10.54q-5.61-2.47485-10.91992-5.46c14.18994-11.48 37.89-19 64.74-19S318.80005 388.02 333 399.49z"/><path fill="#2c2b2d" d="M428.76465,95.48535a226.77631,226.77631,0,0,0-321.3122.29932c-7.82037-12.55237-15.45367-25.699-18.77618-41.48194l-.00049-.00048c-1.604-7.61866-7.07031-12.54151-13.92578-12.54151s-12.32178,4.92285-13.92627,12.542C57.15527,71.729,48.23242,85.94385,39.604,99.69043c-11.23584,17.89941-22.854,36.4082-22.854,61.54883A58.01952,58.01952,0,0,0,45.64514,211.376,228.56993,228.56993,0,0,0,41.25,256,227.002,227.002,0,0,0,428.76465,416.51465a227.00681,227.00681,0,0,0,0-321.0293ZM31.75,161.23926c0-20.82276,9.98584-36.73145,20.55811-53.57422,8.81005-14.03516,17.9038-28.523,22.44189-46.97559C79.28809,79.14258,88.38184,93.62988,97.19189,107.665,107.76416,124.50781,117.75,140.4165,117.75,161.23926a43,43,0,0,1-86,0ZM268.25,468c-116.897,0-212-95.103-212-212a213.7202,213.7202,0,0,1,3.55023-38.72418A57.98793,57.98793,0,0,0,132.75,161.23926c0-20.8711-8.0083-37.17053-17.15649-52.34613A212.557,212.557,0,0,1,268.25,44c116.897,0,212,95.103,212,212S385.147,468,268.25,468ZM149.75,202a7.50006,7.50006,0,0,0,7.5-7.5,20.5,20.5,0,0,1,41,0,7.5,7.5,0,0,0,15,0,35.5,35.5,0,0,0-71,0A7.50006,7.50006,0,0,0,149.75,202Zm181,0a7.50006,7.50006,0,0,0,7.5-7.5,20.5,20.5,0,0,1,41,0,7.5,7.5,0,0,0,15,0,35.5,35.5,0,0,0-71,0A7.50006,7.50006,0,0,0,330.75,202Zm69.95947,82.13037a7.49882,7.49882,0,0,0-7.27832-.356A284.51645,284.51645,0,0,1,269.75,313h-1.48a284.55042,284.55042,0,0,1-125.2002-29.2251A7.4999,7.4999,0,0,0,132.25,290.5q0,2.23142.07416,4.45837a132.96021,132.96021,0,0,0,4.63189,30.67151l.00092.00269.00055.0022a131.92538,131.92538,0,0,0,68.6366,83.4508c.03845.01929.07684.03742.11529.05664.88373.43939,1.77014.87488,2.666,1.296q1.51738.71667,3.03088,1.38507A131.47888,131.47888,0,0,0,264.75,423h7a134.80112,134.80112,0,0,0,13.79449-.70343A130.96113,130.96113,0,0,0,325.082,411.82422c.05884-.02594.11755-.05432.17639-.08032A132.32282,132.32282,0,0,0,404.25,290.5,7.5003,7.5003,0,0,0,400.70947,284.13037Zm-83.69732,114.827q-.68336.286-1.369.56445-.71064.28692-1.42469.56262c-.4552.17688-.91064.35285-1.36749.52387-.48083.18-.96319.35455-1.44586.528-.45673.16413-.91351.32782-1.37183.48609-.48693.16815-.97546.33038-1.46423.49188-.45666.15094-.91327.30194-1.37146.44708-.49377.15643-.98932.3064-1.48486.45606-.4574.13818-.91468.277-1.3736.40948-.49994.14429-1.00171.28156-1.50342.41907-.45721.1253-.91406.25189-1.37274.37152-.50683.13226-1.01562.2569-1.52423.3822-.45758.11279-.91467.2273-1.3736.33447-.51287.11975-1.02764.23127-1.54211.34406-.457.10016-.91351.2027-1.37189.2973-.5205.10748-1.043.20618-1.56524.30652-.45569.08758-.91071.17816-1.36762.26025-.53015.09528-1.06244.18128-1.59418.26923-.45111.07465-.90148.15277-1.35376.22211-.54083.08294-1.0838.15588-1.62628.23132-.44684.06213-.89282.12836-1.34076.18536-.55328.07044-1.10882.13013-1.66369.19269-.43915.0495-.87732.10376-1.31751.14838-.57538.05829-1.15307.10528-1.7301.15521-.42194.0365-.84277.07837-1.26556.11035-.603.04566-1.20832.07929-1.813.11579-.40058.02423-.79993.05432-1.20124.07446-.65966.0332-1.32165.0534-1.98333.07568-.3476.01172-.694.03-1.04218.0387q-1.51511.03791-3.03662.03845h-7q-1.5217,0-3.0368-.03845c-.35248-.00885-.70325-.02722-1.05524-.03913-.65765-.02221-1.3158-.04229-1.97156-.07519-.40887-.02057-.81586-.05121-1.224-.07593-.59631-.03607-1.19323-.06909-1.78784-.11407-.43451-.0329-.86706-.07581-1.30066-.11341-.56561-.04907-1.1319-.09491-1.69592-.152-.44715-.04528-.89234-.10028-1.33844-.15063-.54877-.062-1.09808-.121-1.64527-.19061-.45452-.0578-.9071-.12494-1.36053-.188-.53455-.0744-1.06964-.14618-1.60266-.22785-.46216-.07086-.92249-.15057-1.38342-.22692-.52259-.08655-1.04572-.1709-1.56672-.26453-.46429-.08344-.92657-.17523-1.38952-.26428-.51465-.09894-1.02973-.19617-1.54279-.30207-.46478-.09588-.92767-.1997-1.39105-.30133-.50885-.11157-1.018-.22186-1.52515-.34027-.46423-.10833-.92669-.22412-1.38946-.33819-.50275-.124-1.00568-.24707-1.50672-.37775-.46466-.12115-.92767-.24927-1.39086-.37622-.49591-.13593-.99183-.27161-1.486-.41418-.46332-.13367-.92492-.27375-1.38665-.41321-.49231-.14868-.98456-.29761-1.4751-.453-.45789-.14495-.91419-.29583-1.37049-.44659-.49157-.16241-.98309-.32562-1.47284-.49475-.45288-.15637-.90417-.318-1.3554-.4801-.48889-.1756-.97736-.35242-1.46436-.53473-.449-.16809-.89673-.34094-1.34411-.51471q-.72941-.28337-1.4563-.57514-.66533-.2687-1.32776-.54724c-.26807-.11212-.53534-.22717-.8028-.34137C231.94843,391.86615,249.585,388,268.252,388c18.66425,0,36.29908,3.86566,49.542,10.62488C317.53345,398.73615,317.27325,398.84808,317.01215,398.95734Zm37.82476-25.37043a117.57015,117.57015,0,0,1-21.38024,16.93219C317.32166,379.48517,293.42853,373,268.252,373c-25.1839,0-49.0852,6.48932-65.22162,17.52966a116.80985,116.80985,0,0,1-46.07519-53.13672,299.91958,299.91958,0,0,0,111.31341,21.611c.50489,0,1.01612-.00147,1.52051-.00391A300.03214,300.03214,0,0,0,379.4978,337.40448,117.859,117.859,0,0,1,354.83691,373.58691Zm33.25055-66.56457c-.06555.46619-.14355.93011-.21466,1.39532-.15661,1.02393-.32251,2.04609-.506,3.065-.09588.53271-.19812,1.06408-.30133,1.59533q-.28344,1.45863-.60461,2.90912c-.1139.516-.22626,1.03235-.34711,1.54669-.06421.27314-.1391.54352-.20526.81617a282.63574,282.63574,0,0,1-235.32007-.00251c-.06555-.27026-.13983-.53839-.20343-.80914-.12054-.51312-.23242-1.02814-.346-1.54285q-.32007-1.45056-.60449-2.90887c-.10382-.53418-.20636-1.06854-.30274-1.60419-.18249-1.01391-.34741-2.03113-.50329-3.05-.072-.47039-.1507-.93963-.217-1.411-.20831-1.4812-.39569-2.96588-.54773-4.4555A299.64178,299.64178,0,0,0,268.27,328h1.519a299.80874,299.80874,0,0,0,118.84668-25.43555C388.48352,304.05487,388.296,305.54034,388.08746,307.02234Z"/></svg>