<svg xmlns="http://www.w3.org/2000/svg" data-name="Layer 1" viewBox="0 0 512 512"><circle cx="256" cy="256" r="219.5" fill="#fdd402"/><path fill="#4ebaea" d="M405.96,473.49C380.55005,496.6499,339,503.6,305.84009,500.98A162.7843,162.7843,0,0,1,270.95,494.34c-8.97-2.76-20.46-11.13-29.62988-10.98-5.99.1-12.92017,5.44006-18.25,7.97-21.41016,10.20007-45.97,13.04-69.32007,9.47009-38.39014-5.88013-63.26-33.18-49.1001-72.53C111.97,407.93994,122.76,389.64,128.01,368.51a271.437,271.437,0,0,0,7.93994-65.4V196.15991l49.89014-.02991h.01a60.11724,60.11724,0,0,1,8.68994,6.84c-.09009,6.89-.2,14.97-.3501,24.01-.06982,4.13-.1499,8.46-.24,12.96-.60986,30.95007-.43994,61.91-.32983,92.87012.06982,20.49-5.49024,75.27991,22.63989,76.68994,8.16992.41992,16.07007-2.91,24.11987-4.55a54.57186,54.57186,0,0,1,25.02.77c9.62012,2.47,18.80005,7.13,28.17017,12.45,5.58984,3.17005,13.48,8,19.42993,3.13013,8.05-6.59009,7.71-23.27,8.5-33.21008,1.32007-16.6,1.48-33.34,1.17993-49.98-.60986-32.78992-3.41992-65.46009-5.17993-98.17-.18994-3.45-.37012-7.47-.53-12.01-.24-6.8999-.40991-15-.37988-24.10986a59.1982,59.1982,0,0,1,9.7-7.78l49.21-.03c-.12012,2.58-.24,5.13-.34009,7.66992-1.76,42.23-1.05981,78.21008.34009,106.57007,2.47,50.48,42.87012,73.15991,48,117.15991A53.46752,53.46752,0,0,1,405.96,473.49Z"/><path fill="#fff" d="M321.15,312.89a121.43789,121.43789,0,0,0-11.34-5.71,124.48,124.48,0,0,0-50.31-10.54h-7a124.52758,124.52758,0,0,0-50.32,10.54c-2.95,1.3-5.84,2.7-8.66,4.23l-.29,51.15q4.365-2.37,8.95-4.38a124.52758,124.52758,0,0,1,50.32-10.54h7a124.48,124.48,0,0,1,50.31,10.54,122.56142,122.56142,0,0,1,12.96,6.64Z"/><path fill="#2c2b2d" d="M203.80371,126.31934a7.5024,7.5024,0,0,0-10.18164,2.97461,48.08362,48.08362,0,0,1-18.501,18.9458c-21.207,11.856-43.06445,1.96679-45.4873.7998A7.5,7.5,0,1,0,123.126,162.5542a72.45648,72.45648,0,0,0,29.54687,6.39893,60.352,60.352,0,0,0,29.76563-7.61915A62.85588,62.85588,0,0,0,206.77832,136.5,7.50023,7.50023,0,0,0,203.80371,126.31934Zm222.2854,280.00195A227.12626,227.12626,0,1,0,99.57886,420.49512c-.67823,1.7334-1.3479,3.47387-1.98218,5.23633-6.82031,18.94921-5.81836,36.708,2.89941,51.35839,9.77051,16.42188,28.2793,27.47364,52.11621,31.12012a134.41822,134.41822,0,0,0,20.31153,1.54492,124.656,124.656,0,0,0,53.37109-11.64941c1.78516-.84961,3.62793-1.91309,5.40918-2.94043,3.12207-1.80078,7.39649-4.2666,9.74317-4.30469.042-.001.085-.001.12793-.001,3.95312,0,9.95605,2.9375,15.25976,5.53222a85.73171,85.73171,0,0,0,11.90625,5.11621,170.029,170.029,0,0,0,36.50293,6.94434c32.70215,2.58789,77.65137-3.7832,105.77149-29.42481,14.96484-13.64648,22.23144-32.77636,19.93359-52.48535A88.87037,88.87037,0,0,0,426.08911,406.32129ZM400.9082,467.94336c-24.57617,22.41016-64.92382,27.89453-94.48047,25.55566a155.00318,155.00318,0,0,1-33.27832-6.3291,74.60374,74.60374,0,0,1-9.72265-4.25195c-7.21289-3.53027-14.65528-7.14063-22.22559-7.05567-6.23047.10254-11.94726,3.39942-16.99121,6.3086-1.60156.92383-3.11426,1.79687-4.36523,2.39258-19.22461,9.15527-42.29395,12.28613-64.96485,8.81836-19.32129-2.95508-34.05761-11.46582-41.49316-23.96192-6.34863-10.66894-6.92774-24.01953-1.67676-38.6084,2.77344-7.706,6.169-15.35058,9.45215-22.74218,5.29883-11.92774,10.77734-24.26172,14.12988-37.751a278.88216,278.88216,0,0,0,8.15821-67.208V202.16479c8.65966-1.46691,20.25732-1.38793,31.67089,4.992a46.05373,46.05373,0,0,1,12.03907,9.74853q-.03736,2.577-.07813,5.57666c-.12793,9.33643-.30273,22.12305-.62988,36.852-.384,17.30555-.4563,34.78174-.43262,52.0542v.052c.01123,8.17968.04224,16.31787.0752,24.36254l.02636,6.69141c.00879,2.21875-.07129,4.9541-.16406,8.12109-.32715,11.19922-.77637,26.53809,2.1416,39.64063,5.01367,22.51465,17.89844,27.77246,27.82325,28.21875,6.69433.30762,12.82031-1.17871,18.74414-2.61035,2.45117-.59278,4.7666-1.15235,7.05957-1.57031a53.53616,53.53616,0,0,1,22,.61914c9.21582,2.11328,18.1582,6.29589,26.44824,10.5l.626.31836c4.166,2.12207,10.15137,5.17089,16.41993,5.17089a16.86585,16.86585,0,0,0,10.207-3.32617c9.71972-7.10742,10.60937-20.9541,11.25879-31.06445.09179-1.42285.17675-2.76953.28613-3.99707a412.833,412.833,0,0,0,1.20312-45.46973c-.23754-11.5155-.82275-23.08862-1.54052-34.56555-.00415-.07471-.00757-.14929-.01392-.22375-.52978-8.4524-1.12866-16.85364-1.72388-25.13257-.66113-9.207-1.3457-18.72754-1.91015-28.0752-.81934-13.55347-1.07666-27.4729-.78223-41.41394a46.22825,46.22825,0,0,1,12.67481-10.47717,47.59025,47.59025,0,0,1,30.863-5.12158c-1.553,36.51684-1.47827,73.01513.26587,108.58691,1.415,28.85449,14.07422,48.78027,26.31641,68.04981,10.042,15.80664,19.52734,30.73632,21.72656,49.60644A46.03824,46.03824,0,0,1,400.9082,467.94336ZM201.09375,335.74121q-.03992-9.8042-.06787-19.76135c1.34033-.65418,2.72632-1.29675,4.17725-1.93689A116.60013,116.60013,0,0,1,252.5,304.13965h7a116.5589,116.5589,0,0,1,47.28516,9.90332c2.437,1.07336,4.81836,2.23047,7.13134,3.44409.59082,9.96265,1.05787,19.96191,1.26221,29.86646.03565,1.72558.06177,3.41064.08276,5.07373-.8081-.37537-1.61547-.75367-2.42846-1.11084A131.474,131.474,0,0,0,259.5,340.13965h-7a131.50888,131.50888,0,0,0-51.53442,10.40747c.08935-3.08106.16479-5.77539.15551-8.11157Zm4.10938,29.30176A116.60013,116.60013,0,0,1,252.5,355.13965h7a116.56886,116.56886,0,0,1,47.292,9.90625c2.84839,1.25171,5.6604,2.63806,8.40967,4.12353-.17236,7.8816-.55884,15.11792-1.17139,22.01807-.11914,1.33887-.21386,2.80957-.31347,4.36328-.4336,6.75-1.08985,16.95215-5.14356,19.916-1.99414,1.46875-7.6123-1.39356-10.96582-3.10157l-.64746-.33007c-9.14258-4.63575-19.08984-9.26758-29.88086-11.74317a68.26563,68.26563,0,0,0-28.0459-.7539c-2.71093.49414-5.34375,1.13086-7.89062,1.74609-5.13184,1.24023-9.957,2.41016-14.5459,2.20605-4.78906-.21582-10.69238-2.28515-13.85645-16.49414a102.81628,102.81628,0,0,1-1.98315-19.88061Q202.94812,366.03845,205.20313,365.043Zm201.78222,5.58594c-11.71191-18.43555-22.77441-35.84864-23.99512-60.74121-1.66284-33.89332-1.79052-68.64332-.42016-103.44446a7.496,7.496,0,0,0,6.30395-13.60047,64.74066,64.74066,0,0,0-10.70556-3.83911,7.45272,7.45272,0,0,0-1.61377-.416c-11.50489-2.83789-29.35132-4.38684-46.99414,5.47534a61.678,61.678,0,0,0-18.42383,15.86255,7.49022,7.49022,0,0,0-.59277.77343,65.91993,65.91993,0,0,0-5.32227,8.198,7.49668,7.49668,0,0,0,3.86719,10.59546c.01635,10.25684.32031,20.45435.9248,30.45972.56934,9.43262,1.25684,18.99707,1.92188,28.24609q.43212,6.01062.85888,12.10181A131.47016,131.47016,0,0,0,259.5,289.13965h-7a131.52364,131.52364,0,0,0-51.47925,10.38379c.02515-13.291.13428-26.63892.42749-39.85742.25171-11.34571.41358-21.52588.53369-29.88184a7.49638,7.49638,0,0,0,4.79639-10.88721,62.85994,62.85994,0,0,0-24.33887-24.834c-17.991-10.056-36.19238-8.2478-47.666-5.3064a7.43534,7.43534,0,0,0-1.51587.405,64.08809,64.08809,0,0,0-10.13159,3.68115A7.49589,7.49589,0,0,0,128.4502,206.801v96.30932a263.8663,263.8663,0,0,1-7.71485,63.58985c-3.03711,12.21679-8.01269,23.41992-13.28125,35.27929-.53662,1.20813-1.07715,2.43433-1.61694,3.65576A212.49621,212.49621,0,0,1,44,256C44,139.103,139.10254,44,256,44s212,95.103,212,212a211.32811,211.32811,0,0,1-48.71436,135.2019C415.50073,384.05371,411.21851,377.292,406.98535,370.62891ZM382.36621,149.03955c-2.4209,1.1665-24.2793,11.0542-45.48828-.80029a48.08313,48.08313,0,0,1-18.5-18.94531A7.50023,7.50023,0,0,0,305.22168,136.5a62.85557,62.85557,0,0,0,24.33887,24.8335,60.3485,60.3485,0,0,0,29.7666,7.61963A72.46655,72.46655,0,0,0,388.874,162.5542a7.5,7.5,0,1,0-6.50781-13.51465Z"/></svg>