<svg xmlns="http://www.w3.org/2000/svg" data-name="Layer 1" viewBox="0 0 512 512"><circle cx="256" cy="256" r="219.5" fill="#fdd402"/><circle cx="175" cy="228.457" r="28" fill="#74563a"/><circle cx="337" cy="228.457" r="28" fill="#74563a"/><path fill="#2c2b2d" d="M182.438,161.334A62.84957,62.84957,0,0,0,206.77783,136.5a7.5,7.5,0,1,0-13.15527-7.207,47.22587,47.22587,0,0,1-18.50195,18.94726c-21.20557,11.85352-43.06543,1.96485-45.48731.79883a7.50019,7.50019,0,0,0-6.50684,13.51563,72.47851,72.47851,0,0,0,29.54834,6.39844A60.34865,60.34865,0,0,0,182.438,161.334ZM382.3667,149.03906c-2.42285,1.166-24.2832,11.05371-45.48828-.79883a47.22982,47.22982,0,0,1-18.501-18.94726,7.5,7.5,0,1,0-13.15527,7.207A62.85363,62.85363,0,0,0,329.561,161.334a60.34464,60.34464,0,0,0,29.76464,7.61915,72.48524,72.48524,0,0,0,29.54786-6.39844,7.50019,7.50019,0,0,0-6.50684-13.51563Zm34.14648-53.55273A227.00026,227.00026,0,0,0,95.48682,416.51367,227.00026,227.00026,0,0,0,416.51318,95.48633ZM256,468C139.103,468,44,372.89746,44,256S139.103,44,256,44s212,95.10254,212,212S372.897,468,256,468ZM210.5,228.45605a35.5,35.5,0,1,0-35.5,35.5A35.54,35.54,0,0,0,210.5,228.45605Zm-56,0a20.5,20.5,0,1,1,20.5,20.5A20.52325,20.52325,0,0,1,154.5,228.45605Zm182.5-35.5a35.5,35.5,0,1,0,35.5,35.5A35.54,35.54,0,0,0,337,192.95605Zm0,56a20.5,20.5,0,1,1,20.5-20.5A20.52325,20.52325,0,0,1,337,248.95605Zm-4.002,115.32032a55.38373,55.38373,0,0,1,4.40136-22.87989,7.49986,7.49986,0,1,0-13.79882-5.88085,70.53461,70.53461,0,0,0-4.90906,17.66015,197.37,197.37,0,0,0-124.7218-.21875,50.27609,50.27609,0,0,0-8.4126-18.92383,7.5,7.5,0,1,0-12.11426,8.84571A33.902,33.902,0,0,1,173.437,383.041a7.50016,7.50016,0,1,0,12.126,8.83007,49.99531,49.99531,0,0,0,9.12634-23.29907,181.74941,181.74941,0,0,1,60.8302-10.616c.16211,0,.32031-.001.48242-.001a181.81057,181.81057,0,0,1,62.24854,10.94873,69.665,69.665,0,0,0,5.35107,21.4956,7.50012,7.50012,0,0,0,13.79688-5.88671A54.69607,54.69607,0,0,1,332.99805,364.27637Z"/></svg>