<svg xmlns="http://www.w3.org/2000/svg" data-name="Layer 1" viewBox="0 0 512 512"><circle cx="256" cy="256" r="219.5" fill="#fdd402"/><path fill="#74563a" d="M384.5,308.80005a82.415,82.415,0,0,1-4.43994,26.6499C374.25,352.49,362.99,367.73,347.89014,379.87012a129.90356,129.90356,0,0,1-38.08008,20.96,150.82862,150.82862,0,0,1-50.31006,8.47h-7a150.88789,150.88789,0,0,1-50.32007-8.47c-34.10986-12.08008-60.23-36.04-70.24-65.37012A82.47524,82.47524,0,0,1,127.5,308.80005a345.3698,345.3698,0,0,0,95.7,22.61987c10.37012.9502,21.33008,1.5,32.82007,1.5h1.48c11.09009-.04,21.66992-.59985,31.7-1.54A344.64322,344.64322,0,0,0,384.5,308.80005Z"/><rect width="123" height="44" x="195.348" y="128.804" fill="#afaeb3"/><path fill="#c9e7f8" d="M395.41005 269.76464h-35.333a60 60 0 0 1-58.68635-47.51354l-12.17941-57.24323a30 30 0 0 1 29.34317-36.24323H432.94439a30 30 0 0 1 29.70268 34.21315l-7.83165 55.21314A60 60 0 0 1 395.41005 269.76464zM117.59 269.76464h35.333a60 60 0 0 0 58.68635-47.51354l12.17941-57.24323a30 30 0 0 0-29.34317-36.24323H80.05561a30 30 0 0 0-29.70268 34.21315l7.83165 55.21314A60 60 0 0 0 117.59 269.76464z"/><path fill="#fff" d="M289.2,331.37988l-.7,20.42017a14.99918,14.99918,0,0,1-15,15h-36a14.99918,14.99918,0,0,1-15-15l.7-20.38013c10.37012.9502,21.33008,1.5,32.82007,1.5h1.48C268.59009,332.87988,279.16992,332.32007,289.2,331.37988Z"/><circle cx="375.745" cy="199.265" r="28" fill="#e0ccbe"/><circle cx="137.255" cy="199.265" r="28" fill="#e0ccbe"/><path fill="#2c2b2d" d="M299.04785,136.26465H213.80078a7.5,7.5,0,0,1,0-15h85.24707a7.5,7.5,0,1,1,0,15Z"/><path fill="#2c2b2d" d="M388.71387,302.60059a7.509,7.509,0,0,0-6.97949-.76758c-38.44727,15.25293-81.418,23.41113-124.23438,23.59179h-1.48047A343.41544,343.41544,0,0,1,130.2666,301.834,7.49949,7.49949,0,0,0,120,308.80469a90.03589,90.03589,0,0,0,4.84277,29.07519c10.73731,31.46289,38.01368,56.98438,74.833,70.01953A157.75745,157.75745,0,0,0,252.5,416.80469h7a157.72416,157.72416,0,0,0,52.81152-8.9043,136.84018,136.84018,0,0,0,40.27735-22.18555c16.45605-13.23046,28.41015-29.77539,34.57031-47.84863A90.00051,90.00051,0,0,0,392,308.80469,7.4977,7.4977,0,0,0,388.71387,302.60059ZM230.65674,339.52051q12.6577.88476,25.36279.90429h1.51172q12.05968-.05089,24.106-.9165l-.62647,11.90186c-.00683.13183-.01074.26269-.01074.39453a7.5082,7.5082,0,0,1-7.5,7.5h-36a7.50836,7.50836,0,0,1-7.49805-7.33594Zm142.3042-6.49121c-5.24024,15.374-15.53516,29.5498-29.77051,40.99609a121.8943,121.8943,0,0,1-35.88477,19.73535A142.76587,142.76587,0,0,1,259.5,401.80469h-7a142.79375,142.79375,0,0,1-47.81738-8.04492C172.68945,382.43359,148.14941,359.73242,139.04,333.04a75.8692,75.8692,0,0,1-3.19922-13.08691,356.66718,356.66718,0,0,0,79.8667,18.21679l-.69678,13.24024c-.00683.13183-.01074.26269-.01074.39453a22.52586,22.52586,0,0,0,22.5,22.5h36a22.52669,22.52669,0,0,0,22.499-22.28321l.731-13.8955a357.01791,357.01791,0,0,0,79.4292-18.17383A75.85067,75.85067,0,0,1,372.96094,333.0293Zm95.44189-157.22242,1.67041-11.77661a37.4979,37.4979,0,0,0-31.02832-42.26538A227.1205,227.1205,0,0,0,150.22168,55.09766a228.9102,228.9102,0,0,0-77.43262,66.8894,37.4761,37.4761,0,0,0-29.8623,42.04419l1.39892,9.86182a227.0249,227.0249,0,0,0,372.189,242.62158,227.18146,227.18146,0,0,0,51.88818-240.70777Zm-18.46826-31.79321a22.4914,22.4914,0,0,1,5.28711,17.91016l-7.832,55.21387a52.747,52.747,0,0,1-51.97949,45.127h-35.333a52.75713,52.75713,0,0,1-51.35059-41.57422l-10.50219-49.35938c-.00684-.03393-.01441-.06738-.02173-.10107l-1.65576-7.78271a22.50022,22.50022,0,0,1,22.00781-27.18262H432.94434A22.48957,22.48957,0,0,1,449.93457,144.01367ZM256,44a212.57669,212.57669,0,0,1,163.65332,77.26465H318.55469c-.49,0-.97656.022-1.46338.04077-.03735-.00049-.07349-.00562-.11084-.00562H196.01953c-.03735,0-.07349.00513-.11084.00562-.48681-.0188-.97339-.04077-1.46338-.04077H92.34131A212.55159,212.55159,0,0,1,256,44Zm25.64185,121.2998h-50.2837a37.29832,37.29832,0,0,0-6.9021-29H288.544A37.29832,37.29832,0,0,0,281.64185,165.2998ZM63.06543,144.01367a22.48957,22.48957,0,0,1,16.99023-7.749H194.44531a22.50023,22.50023,0,0,1,22.00782,27.18262L214.79736,171.23c-.00732.03369-.01489.06714-.02173.10107l-10.50219,49.35938a52.75713,52.75713,0,0,1-51.35059,41.57422h-35.333a52.747,52.747,0,0,1-51.97949-45.127l-7.832-55.2129A22.4925,22.4925,0,0,1,63.06543,144.01367ZM256,468C139.10254,468,44,372.89746,44,256a212.40659,212.40659,0,0,1,5.27856-47.19067l1.48023,10.43579a67.49806,67.49806,0,0,0,66.83105,58.01953h35.333a67.83162,67.83162,0,0,0,66.02246-53.45313l9.25806-43.51172h56.59326l9.25806,43.51172a67.83162,67.83162,0,0,0,66.02246,53.45313h35.333a67.49806,67.49806,0,0,0,66.83105-58.01953l1.09107-7.6919A212.58836,212.58836,0,0,1,468,256C468,372.89746,372.89746,468,256,468Z"/></svg>