<svg xmlns="http://www.w3.org/2000/svg" data-name="Layer 1" viewBox="0 0 512 512"><circle cx="256" cy="256" r="219.5" fill="#fdd402"/><path fill="#2c2b2d" d="M201,204.5a7.5,7.5,0,0,0-15,0,20.5,20.5,0,0,1-41,0,7.5,7.5,0,0,0-15,0,35.5,35.5,0,0,0,71,0ZM374.5,197a7.50006,7.50006,0,0,0-7.5,7.5,20.5,20.5,0,0,1-41,0,7.5,7.5,0,0,0-15,0,35.5,35.5,0,0,0,71,0A7.50006,7.50006,0,0,0,374.5,197ZM416.51318,95.48682A226.99992,226.99992,0,1,0,95.48682,416.51318,226.99992,226.99992,0,1,0,416.51318,95.48682ZM256,468C139.103,468,44,372.897,44,256S139.103,44,256,44s212,95.103,212,212S372.897,468,256,468Zm90-123H166a7.5,7.5,0,0,0,0,15H346a7.5,7.5,0,0,0,0-15Z"/></svg>