<svg xmlns="http://www.w3.org/2000/svg" data-name="Layer 1" viewBox="0 0 512 512"><circle cx="256" cy="256" r="219.5" fill="#e5303e"/><circle cx="185.12" cy="216" r="19.5" fill="#b72732"/><circle cx="326.88" cy="216" r="19.5" fill="#b72732"/><path fill="#2c2b2d" d="M204.44043 220.81982a7.51 7.51 0 1 1 7.5-7.5A7.49954 7.49954 0 0 1 204.44043 220.81982zM307.55957 220.81982h0a7.52294 7.52294 0 1 1 6.59766-3.93066A7.49974 7.49974 0 0 1 307.55957 220.81982z"/><path fill="#2c2b2d" d="M353.19336,347.94629A132.1737,132.1737,0,0,0,259.5,309.13965h-7a131.5101,131.5101,0,0,0-53.3418,11.17578,133.55212,133.55212,0,0,0-62.24707,56.51172,7.49995,7.49995,0,0,0,13.07813,7.3457A118.46814,118.46814,0,0,1,205.20313,334.043,116.60013,116.60013,0,0,1,252.5,324.13965h7a117.16506,117.16506,0,0,1,83.08691,34.41406,117.92838,117.92838,0,0,1,19.42481,25.62012,7.49957,7.49957,0,1,0,13.07617-7.34766A132.91978,132.91978,0,0,0,353.19336,347.94629ZM416.51367,95.48682A227.00044,227.00044,0,0,0,95.48633,416.51367,227.00044,227.00044,0,0,0,416.51367,95.48682ZM256,468C139.10254,468,44,372.89746,44,256,44,139.103,139.10254,44,256,44s212,95.103,212,212C468,372.89746,372.89746,468,256,468ZM175.12207,188.29736c.96533.53955,1.88086,1.10938,2.769,1.69336a27.02454,27.02454,0,1,0,28.58863,9.52246,62.7776,62.7776,0,0,0-24.04029-24.31005c-27.82519-15.55176-56.1748-2.73292-59.31445-1.21973a7.49994,7.49994,0,1,0,6.50977,13.51367C132.05762,186.33057,153.91113,176.44189,175.12207,188.29736ZM185.12012,204a12,12,0,1,1-12,12A12.01344,12.01344,0,0,1,185.12012,204ZM388.875,173.9834c-3.1416-1.51367-31.49121-14.33447-59.31348,1.21924a62.778,62.778,0,0,0-24.04126,24.31054,26.989,26.989,0,1,0,28.58887-9.52234c.88843-.58435,1.804-1.15429,2.76978-1.694,21.21191-11.85743,43.06347-1.96631,45.48632-.79981A7.49994,7.49994,0,1,0,388.875,173.9834ZM338.87988,216a12,12,0,1,1-12-12A12.01343,12.01343,0,0,1,338.87988,216Z"/></svg>