<svg xmlns="http://www.w3.org/2000/svg" data-name="Layer 1" viewBox="0 0 512 512"><circle cx="256" cy="270.425" r="219.5" fill="#fdd402"/><circle cx="256" cy="369.425" r="47.5" fill="#74563a"/><path fill="#2c2b2d" d="M256,314.4248a55,55,0,1,0,55,55A55.06224,55.06224,0,0,0,256,314.4248Zm0,95a40,40,0,1,1,40-40A40.04551,40.04551,0,0,1,256,409.4248Zm-62.5-208a7.50006,7.50006,0,0,0-7.5,7.5,20.5,20.5,0,0,1-41,0,7.5,7.5,0,0,0-15,0,35.5,35.5,0,0,0,71,0A7.50006,7.50006,0,0,0,193.5,201.4248Zm181,0a7.50006,7.50006,0,0,0-7.5,7.5,20.5,20.5,0,0,1-41,0,7.5,7.5,0,0,0-15,0,35.5,35.5,0,0,0,71,0A7.50006,7.50006,0,0,0,374.5,201.4248Zm42.01318-91.51318A227.00009,227.00009,0,0,0,95.48682,430.93848,227.00009,227.00009,0,0,0,416.51318,109.91162ZM256,482.4248c-116.897,0-212-95.10253-212-212,0-116.897,95.103-212,212-212s212,95.103,212,212C468,387.32227,372.897,482.4248,256,482.4248ZM222.375,153.5752h23.24414l-27.9292,22.34326A7.49993,7.49993,0,0,0,222.375,189.2749H267a7.5,7.5,0,0,0,0-15H243.75586l27.9292-22.34326A7.49993,7.49993,0,0,0,267,138.5752H222.375a7.5,7.5,0,0,0,0,15Zm71-50h23.24414l-27.9292,22.34326A7.49993,7.49993,0,0,0,293.375,139.2749H338a7.5,7.5,0,0,0,0-15H314.75586l27.9292-22.34326A7.49993,7.49993,0,0,0,338,88.5752H293.375a7.5,7.5,0,0,0,0,15Zm91-74h23.24414l-27.9292,22.34326A7.49993,7.49993,0,0,0,384.375,65.2749H429a7.5,7.5,0,0,0,0-15H405.75586l27.9292-22.34326A7.49993,7.49993,0,0,0,429,14.5752H384.375a7.5,7.5,0,0,0,0,15Z"/></svg>