<svg xmlns="http://www.w3.org/2000/svg" data-name="Layer 1" viewBox="0 0 512 512"><circle cx="256" cy="256" r="219.5" fill="#fdd402"/><circle cx="165.5" cy="194.5" r="28" fill="#74563a"/><circle cx="346.5" cy="194.5" r="28" fill="#74563a"/><path fill="#2c2b2d" d="M165.5,230A35.5,35.5,0,1,0,130,194.5,35.54,35.54,0,0,0,165.5,230Zm0-56A20.5,20.5,0,1,1,145,194.5,20.52325,20.52325,0,0,1,165.5,174Zm181,56A35.5,35.5,0,1,0,311,194.5,35.54,35.54,0,0,0,346.5,230Zm0-56A20.5,20.5,0,1,1,326,194.5,20.52325,20.52325,0,0,1,346.5,174Zm35.542,125.40674a7.496,7.496,0,0,0-9.21582,5.251A117.42927,117.42927,0,0,1,259.5,391h-7a117.41578,117.41578,0,0,1-113.32715-86.33447,7.49971,7.49971,0,1,0-14.46484,3.96875A132.417,132.417,0,0,0,252.5,406h7a132.58733,132.58733,0,0,0,127.793-97.37744A7.4999,7.4999,0,0,0,382.042,299.40674ZM416.51367,95.48682A227.00026,227.00026,0,0,0,95.48633,416.51318,227.00026,227.00026,0,0,0,416.51367,95.48682ZM256,468C139.10254,468,44,372.897,44,256S139.10254,44,256,44s212,95.103,212,212S372.89746,468,256,468Z"/></svg>