<svg xmlns="http://www.w3.org/2000/svg" data-name="Layer 1" viewBox="0 0 512 512"><defs><radialGradient id="a" cx="253.5" cy="256" r="219.5" gradientUnits="userSpaceOnUse"><stop offset=".006" stop-color="#fdd402"/><stop offset=".859" stop-color="#fdd402"/><stop offset="1" stop-color="#fdd402"/></radialGradient></defs><path fill="url(#a)" d="M420.57007,113.63q-5.80518-6.81-12.15015-13.13a219.33429,219.33429,0,0,0-309.11987-.71q-6.36,6.27-12.17993,13.04A218.586,218.586,0,0,0,34,256c0,121.23,98.27,219.5,219.5,219.5S473,377.23,473,256A218.64421,218.64421,0,0,0,420.57007,113.63Z"/><path fill="#2c2b2d" d="M357.792,322.34912a7.49912,7.49912,0,0,0-10.44238,1.85938c-5.22363,7.48681-33.791,44.99707-83.33887,48.23779-41.37207,2.708-82.20215-19.94141-104.0166-57.69824a7.50007,7.50007,0,1,0-12.98828,7.5039,132.56773,132.56773,0,0,0,50.417,49.76416,123.3052,123.3052,0,0,0,59.77246,15.65235q3.895,0,7.79395-.2544c56.39746-3.688,88.749-46.14843,94.66113-54.62256A7.49945,7.49945,0,0,0,357.792,322.34912ZM344,184a61.30826,61.30826,0,0,0-56.89844,38.15039,7.49995,7.49995,0,0,0,13.875,5.69922,46.50525,46.50525,0,0,1,86.04688,0,7.49995,7.49995,0,1,0,13.875-5.69922A61.30826,61.30826,0,0,0,344,184ZM206.02344,227.84961a7.49995,7.49995,0,0,0,13.875-5.69922,61.50507,61.50507,0,0,0-113.79688,0,7.49995,7.49995,0,0,0,13.875,5.69922,46.50525,46.50525,0,0,1,86.04688,0ZM492.5,77.5c0-13.311-16.98926-20.50244-22.57227-22.86572C457.87988,49.53467,440.8291,44.98975,419.249,41.126,375.57422,33.30664,317.59766,29,256,29c-.708,0-1.41284.00348-2.11987.00464C253.75317,29.00446,253.627,29,253.5,29c-.18237,0-.36377.00623-.54614.00665-60.46.13971-117.24927,4.42914-160.20288,12.11933-21.58008,3.86377-38.63086,8.40869-50.67871,13.5083C36.48926,56.99756,19.5,64.189,19.5,77.5s16.98926,20.50244,22.57227,22.86572c9.30371,3.93811,21.60351,7.5437,36.65625,10.762A227.00469,227.00469,0,0,0,414.01367,416.51318a227.0432,227.0432,0,0,0,15.00244-304.50134c17.00489-3.43713,30.74585-7.3432,40.91162-11.64612C475.51074,98.00244,492.5,90.811,492.5,77.5ZM252.98657,44.00653q.43872-.001.87744-.00189a211.23339,211.23339,0,0,1,145.12671,57.9472C358.70215,107.81274,308.7356,111,256,111c-54.63257,0-106.29346-3.42059-147.30029-9.69092A211.21205,211.21205,0,0,1,252.98657,44.00653ZM34.5,77.5c.002-.10791,3.81543-11.42676,61.1875-21.66113,19.8938-3.54877,42.84546-6.35517,67.79492-8.34394A226.79716,226.79716,0,0,0,92.98633,95.48682c-.88819.88818-1.75537,1.79156-2.62695,2.69177C38.07739,88.21588,34.502,77.60449,34.5,77.5ZM465.5,256c0,116.897-95.10254,212-212,212s-212-95.103-212-212A211.1504,211.1504,0,0,1,95.853,114.41608C139.15332,121.89093,195.84619,126,256,126c58.15942,0,113.084-3.84106,155.79712-10.85138A211.13045,211.13045,0,0,1,465.5,256ZM417.40625,98.96289c-1.11938-1.167-2.24561-2.3291-3.39258-3.47607A226.74344,226.74344,0,0,0,342.429,47.02832a735.03639,735.03639,0,0,1,73.88354,8.81055C473.68457,66.07324,477.49805,77.39209,477.5,77.5,477.49805,77.60724,473.72412,88.78113,417.40625,98.96289Z"/></svg>