<svg xmlns="http://www.w3.org/2000/svg" data-name="Layer 1" viewBox="0 0 512 512"><path fill="#93509e" d="M325.51123 108.47826c12.27832-.49414 52.02759-3.65771 85.98877-34.5a133.10572 133.10572 0 0 0 35-52 125.78888 125.78888 0 0 1 18 41c13.4043 56.78467-18.56372 104.46729-26 115M187.74585 108.47826c-12.27832-.49414-52.02759-3.65771-85.98877-34.5a133.10572 133.10572 0 0 1-35-52 125.78888 125.78888 0 0 0-18 41c-13.4043 56.78467 18.56372 104.46729 26 115"/><circle cx="256" cy="270.522" r="219.5" fill="#93509e"/><circle cx="185.12" cy="230.522" r="19.5" fill="#692b7c"/><circle cx="326.88" cy="230.522" r="19.5" fill="#692b7c"/><path fill="#2c2b2d" d="M456.19141,163.42025c12.98925-24.47534,25.31933-61.01611,15.60839-102.16113A132.97578,132.97578,0,0,0,452.73535,17.8138a7.49951,7.49951,0,0,0-13.26172,1.543A126.03234,126.03234,0,0,1,406.457,68.429a121.44733,121.44733,0,0,1-21.23974,15.43335A227.09373,227.09373,0,0,0,127.364,83.46981a121.59293,121.59293,0,0,1-20.56225-15.04175,125.75744,125.75744,0,0,1-33.01367-49.0664,7.501,7.501,0,0,0-13.26172-1.55274A132.7455,132.7455,0,0,0,41.46094,61.25716c-9.58448,40.58521,2.35693,76.741,14.98291,100.99414a226.997,226.997,0,1,0,399.74756,1.169ZM256,482.51986c-116.89746,0-212-95.10254-212-212A211.9616,211.9616,0,0,1,71.50195,166.02377c.02124-.0376.03687-.07667.05762-.11426.06982-.12866.13452-.25928.19678-.39136.04785-.10107.09521-.2019.13818-.304.04639-.11157.08789-.2246.12891-.33813.04541-.12427.09009-.24805.12842-.37354.029-.0957.05322-.19262.07836-.2893.03687-.14112.07325-.28223.10181-.42456.01831-.09131.031-.1836.0459-.27564.02344-.1455.04663-.29052.06128-.436.0105-.10181.01465-.20435.02075-.30664.00806-.13452.01685-.2688.01758-.40308.00073-.11987-.00562-.24-.01074-.36011-.00489-.1167-.0083-.23339-.01856-.34961-.012-.1333-.03149-.26611-.05053-.39941-.0149-.10449-.02857-.209-.04786-.3125-.02465-.13281-.05688-.2644-.08911-.39648-.02588-.10669-.051-.21314-.08154-.31836-.03467-.11914-.07544-.23682-.11621-.35474-.04151-.12036-.08374-.24023-.13135-.3584-.03979-.09839-.084-.19556-.12817-.29321-.06177-.13623-.12622-.271-.19629-.40381-.01953-.03711-.03418-.07544-.05445-.1123-12.02734-21.88379-24.47851-55.957-15.49316-94.00586a115.75817,115.75817,0,0,1,9.68945-26.248A139.88358,139.88358,0,0,0,96.71777,79.53255,136.73632,136.73632,0,0,0,124.291,98.93783c.03271.01758.06665.02978.09936.04687.14258.07324.28735.14014.43384.20386.0896.03931.17871.07861.269.114.12647.04932.2544.09253.38306.13477.11279.03735.22534.07471.33911.10644.10742.02979.21631.0542.32495.07911.13306.03076.26563.06128.39917.08447.0979.01684.19629.02832.29468.04126.14136.0188.28223.0376.42358.04809.10327.00782.20679.00928.31031.0127.134.00439.26757.00977.40112.00708.12036-.0022.24023-.012.36059-.02.11524-.00806.23072-.01392.34522-.02734.13769-.01563.27441-.0398.41162-.063.09692-.01685.19434-.03125.29053-.05176.14355-.03027.28564-.06909.428-.10815.09057-.02491.18164-.04786.27124-.07618.13452-.04248.26684-.09228.39965-.14282.09888-.03735.19776-.074.29493-.11548.11425-.04882.22631-.10376.33862-.15869.11548-.05664.23071-.11352.34351-.176.09082-.0503.17968-.10474.269-.15943.12988-.0791.25781-.16064.3833-.248.033-.023.06787-.04126.10058-.065a212.07773,212.07773,0,0,1,248.11133.36817c.019.01367.04.02246.05908.03589a7.5,7.5,0,0,0,.91651.55859c.05615.029.11328.05371.16992.0813a7.57749,7.57749,0,0,0,.896.366c.03759.01245.07373.02905.11181.04077a7.515,7.515,0,0,0,.97852.23c.07715.01318.15332.02612.23047.03686a7.47961,7.47961,0,0,0,1.01172.07764l.02246.00171c.03564,0,.07129-.00562.10742-.00635.22949-.00293.45947-.01562.68945-.04.06739-.00708.13379-.01782.20069-.02685.20312-.0271.40576-.062.60791-.1062.07959-.01734.1582-.03638.2373-.0564.18115-.0459.36035-.09961.53955-.15991.09277-.031.18506-.061.27686-.09546.15527-.05908.3081-.1272.46093-.19727.105-.04809.21094-.09277.314-.1455.01953-.01.03955-.01709.05908-.02735A136.675,136.675,0,0,0,416.543,79.53158,140.06862,140.06862,0,0,0,447.50391,38.4515a115.7264,115.7264,0,0,1,9.69629,26.252c9.10058,38.5586-3.7295,72.97754-16.09375,95.0625-.02247.04053-.03956.08277-.061.12354-.06787.12695-.13135.25586-.19141.38623-.04785.10278-.09472.20532-.1372.30908-.04639.11206-.08741.22559-.12793.33984-.04395.12378-.08692.24732-.12451.37232-.0293.09863-.05372.19848-.07862.29809-.03515.13819-.06933.27613-.09619.41529-.01855.09692-.03223.19458-.04687.29248-.02149.1394-.04248.27881-.05567.4187-.01025.1084-.01416.21753-.02.32641-.00635.12769-.01367.25489-.01367.38209s.00732.25439.01367.38208c.00586.10888.00977.218.02.32641.01319.13989.03418.2793.05567.4187.01464.0979.02832.19556.04687.29248.02686.13916.061.2771.09619.41529.0249.09961.04932.19946.07862.29809.03759.125.08056.24854.12451.37232.04052.11425.08154.22778.12793.33984.04248.10376.08935.2063.1372.30908.06006.13037.12354.25928.19141.38623.02148.04077.03857.083.061.12354A212.11725,212.11725,0,0,1,468,270.51986C468,387.41732,372.89746,482.51986,256,482.51986ZM372.22363,334.62435a7.498,7.498,0,0,0-10.21191,2.86426,117.94149,117.94149,0,0,1-55.22559,50.12988A116.5532,116.5532,0,0,1,259.5,397.52181h-7a116.58739,116.58739,0,0,1-47.29883-9.90429,118.45367,118.45367,0,0,1-55.21191-50.12793,7.49995,7.49995,0,1,0-13.07813,7.3457,133.53756,133.53756,0,0,0,62.24512,56.50976A131.49035,131.49035,0,0,0,252.5,412.52181h7a132.17716,132.17716,0,0,0,93.69336-38.80566,132.94442,132.94442,0,0,0,21.89453-28.87988A7.49866,7.49866,0,0,0,372.22363,334.62435ZM175.12207,202.81869c.96558.53955,1.88086,1.10962,2.769,1.69384a27.02464,27.02464,0,1,0,28.58667,9.52,62.77455,62.77455,0,0,0-24.03833-24.30761c-27.82226-15.54883-56.17187-2.73242-59.31347-1.22071a7.5004,7.5004,0,0,0,6.50781,13.51563C132.05469,200.85287,153.91309,190.96517,175.12207,202.81869Zm9.998,15.70312a12,12,0,1,1-12,12A12.01312,12.01312,0,0,1,185.12012,218.52181ZM388.874,188.50423c-3.1416-1.51171-31.49609-14.33105-59.3125,1.22071a62.76645,62.76645,0,0,0-24.03906,24.30761,26.98887,26.98887,0,1,0,28.58692-9.51977c.88818-.58423,1.80371-1.15454,2.76953-1.69409,21.209-11.85254,43.06543-1.96582,45.4873-.79883a7.5004,7.5004,0,0,0,6.50781-13.51563Zm-49.99414,42.01758a12,12,0,1,1-12-12A12.01312,12.01312,0,0,1,338.87988,230.52181Z"/></svg>