<svg xmlns="http://www.w3.org/2000/svg" data-name="Layer 1" viewBox="0 0 512 512"><circle cx="256" cy="256" r="219.5" fill="#fdd402"/><circle cx="189.838" cy="202.174" r="19.5" fill="#74563a"/><circle cx="370.838" cy="202.174" r="19.5" fill="#74563a"/><path fill="#2c2b2d" d="M314.30371,324.81494l-4.94922,4.94971a116.58063,116.58063,0,0,1-40.44922,26.4414,118.45391,118.45391,0,0,1-74.48535,3.59522,7.49991,7.49991,0,0,0-4.05469,14.44141,132.34948,132.34948,0,0,0,129.59668-33.87159l4.94922-4.9497a7.50024,7.50024,0,0,0-10.60742-10.60645Zm102.21-229.32812A227.00026,227.00026,0,0,0,95.48633,416.51318,227.00026,227.00026,0,0,0,416.51367,95.48682ZM256,468C139.10254,468,44,372.897,44,256S139.10254,44,256,44s212,95.103,212,212S372.89746,468,256,468ZM189.89453,229.1792a26.991,26.991,0,0,0,7.24219-52.98248,62.79119,62.79119,0,0,0-33.793-5.162c-31.59961,4.11963-46.707,31.32226-48.3252,34.41064a7.49962,7.49962,0,1,0,13.28516,6.96289c1.249-2.38134,12.8916-23.35888,36.98047-26.49951q1.62231-.212,3.24341-.3078a26.99675,26.99675,0,0,0,17.38061,43.28534A27.4086,27.4086,0,0,0,189.89453,229.1792ZM180.208,209.3335a12.0025,12.0025,0,0,1,9.60449-19.1626,12.20015,12.20015,0,0,1,1.77148.13037,12.0001,12.0001,0,1,1-11.376,19.03223ZM378.137,176.19672a62.7887,62.7887,0,0,0-33.79321-5.162c-31.59961,4.11963-46.707,31.32226-48.3252,34.41064a7.49962,7.49962,0,1,0,13.28516,6.96289c1.249-2.38134,12.8916-23.35888,36.98047-26.49951q1.62231-.212,3.24341-.3078a26.99675,26.99675,0,0,0,17.38061,43.28534,27.4086,27.4086,0,0,0,3.98633.293,26.991,26.991,0,0,0,7.24243-52.98248Zm4.573,27.7232a11.99869,11.99869,0,1,1-11.89746-13.749,12.20015,12.20015,0,0,1,1.77148.13037,11.99985,11.99985,0,0,1,10.126,13.61865Z"/></svg>