<svg xmlns="http://www.w3.org/2000/svg" data-name="Layer 1" viewBox="0 0 512 512"><circle cx="256" cy="256" r="219.5" fill="#fdd402"/><path fill="#74563a" d="M384.5,276.5a124.90978,124.90978,0,0,1-125,125h-7a124.84973,124.84973,0,0,1-125-125,291.23618,291.23618,0,0,0,128.52,30h1.48A291.16582,291.16582,0,0,0,384.5,276.5Z"/><path fill="#e5303e" d="M310,326V434.98125C310,465.64,285.82007,490.5,256,490.5s-54-24.86-54-55.51875V326Z"/><path fill="#2c2b2d" d="M416.51465,95.48535A227,227,0,0,0,29,256c0,108.21136,76.47314,201.40161,182.19141,222.55951a61.36014,61.36014,0,0,0,89.61718,0C406.52686,457.40161,483,364.21136,483,256A225.51427,225.51427,0,0,0,416.51465,95.48535ZM302.5,330.5v60.46576c0,.01306-.00024.02606,0,.03912V436.5a46.5,46.5,0,0,1-93,0v-106a7.5,7.5,0,0,0-15,0v48.21326a117.17506,117.17506,0,0,1-58.88672-90.14734A299.64178,299.64178,0,0,0,256.01953,314h1.51953a299.80693,299.80693,0,0,0,118.84668-25.43555A117.54629,117.54629,0,0,1,317.5,378.69391V330.5a7.5,7.5,0,0,0-15,0Zm10.19312,129.83A61.15971,61.15971,0,0,0,317.5,436.5V395.64807A132.29625,132.29625,0,0,0,392,276.5a7.49985,7.49985,0,0,0-10.81934-6.72559A284.51108,284.51108,0,0,1,257.5,299h-1.48047a284.53832,284.53832,0,0,1-125.19922-29.2251A7.50042,7.50042,0,0,0,120,276.5a132.28535,132.28535,0,0,0,74.5,119.15277V436.5a61.15971,61.15971,0,0,0,4.80688,23.83A212.09026,212.09026,0,0,1,44,256C44,139.10254,139.10254,44,256,44s212,95.10254,212,212A212.09026,212.09026,0,0,1,312.69312,460.33Zm68.15356-310.22016a7.49985,7.49985,0,0,0-10.23242-2.79052l-46.66992,26.66894a7.49948,7.49948,0,0,0,0,13.02344l46.66992,26.66894a7.49974,7.49974,0,1,0,7.4414-13.02343L342.78125,180.5l35.27441-20.15723A7.50015,7.50015,0,0,0,380.84668,150.10986Zm-192.791,23.87842-46.66992-26.66894a7.49974,7.49974,0,1,0-7.4414,13.02343L169.21875,180.5l-35.27441,20.15723a7.49974,7.49974,0,1,0,7.4414,13.02343l46.66992-26.66894a7.49948,7.49948,0,0,0,0-13.02344ZM256,329a7.49974,7.49974,0,0,0-7.5,7.5v74a7.5,7.5,0,0,0,15,0v-74A7.49974,7.49974,0,0,0,256,329Z"/></svg>