<svg xmlns="http://www.w3.org/2000/svg" data-name="Layer 1" viewBox="0 0 512 512"><circle cx="254.712" cy="256" r="219.5" fill="#fdd402"/><path fill="#fff" d="M383.21,293.5A125.38123,125.38123,0,0,1,378.77,326.64q-1.57508,5.72993-3.66992,11.24A124.00735,124.00735,0,0,1,365.46,357.75,124.87346,124.87346,0,0,1,258.21,418.5h-7a125.10772,125.10772,0,0,1-116.88989-80.62q-2.10022-5.49-3.67017-11.2301A125.39864,125.39864,0,0,1,126.21,293.5a291.23628,291.23628,0,0,0,128.52,30h1.48A291.16558,291.16558,0,0,0,383.21,293.5Z"/><polygon fill="#4ebaea" points="113.283 40.453 155.84 100.152 229.145 98.939 185.518 157.861 209.324 227.204 139.804 203.921 81.212 247.99 81.873 174.677 21.855 132.571 91.784 110.545 113.283 40.453"/><polygon fill="#4ebaea" points="398.717 40.453 356.16 100.152 282.855 98.939 326.482 157.861 302.676 227.204 372.196 203.921 430.788 247.99 430.127 174.677 490.145 132.571 420.216 110.545 398.717 40.453"/><path fill="#2c2b2d" d="M92.53027,115.58008a7.50489,7.50489,0,1,1,5.31348-2.20606l-.00977.00977A7.481,7.481,0,0,1,92.53027,115.58008Z"/><path fill="#2c2b2d" d="M387.17188,287.13086a7.50028,7.50028,0,0,0-7.27833-.35645A284.528,284.528,0,0,1,256.21191,316h-1.47949a284.53186,284.53186,0,0,1-125.20019-29.22559A7.50043,7.50043,0,0,0,118.71191,293.5a132.321,132.321,0,0,0,79.15723,121.32324A131.48239,131.48239,0,0,0,251.21191,426h7a132.17235,132.17235,0,0,0,93.69434-38.80664,132.92985,132.92985,0,0,0,26.86987-38.677c.06006-.11817.10669-.243.1604-.36487a131.30985,131.30985,0,0,0,7.07032-19.53235A133.08063,133.08063,0,0,0,390.71191,293.5,7.49889,7.49889,0,0,0,387.17188,287.13086Zm-45.873,89.45508A117.159,117.159,0,0,1,258.21191,411h-7a117.549,117.549,0,0,1-97.04443-51.11328,300.452,300.452,0,0,0,100.59131,17.54687c.49609,0,.99609-.001,1.49121-.0039A300.44155,300.44155,0,0,0,355.12012,359.939,117.93714,117.93714,0,0,1,341.29883,376.58594Zm30.24023-51.92871a116.14167,116.14167,0,0,1-5.13672,14.74121,285.29407,285.29407,0,0,1-110.22949,23.03125c-.47265.00293-.94238.0039-1.415.0039a285.328,285.328,0,0,1-111.76465-23.04895,116.97208,116.97208,0,0,1-8.667-33.81823A299.64264,299.64264,0,0,0,254.73242,331H256.251a299.80448,299.80448,0,0,0,118.84668-25.43555A117.54773,117.54773,0,0,1,371.53906,324.65723ZM497.55664,131.42578a7.49943,7.49943,0,0,0-5.15918-6.00781l-66.167-20.8418L405.8877,38.25391a7.49978,7.49978,0,0,0-13.27735-2.1543L373.68481,62.64819a227.16873,227.16873,0,0,0-236.15112-1.09643l-18.144-25.45215a7.49978,7.49978,0,0,0-13.27735,2.1543L85.76953,104.57617l-66.167,20.8418a7.49971,7.49971,0,0,0-2.05469,13.293l31.144,21.84936A227.04983,227.04983,0,0,0,254.71,483a227.10177,227.10177,0,0,0,206.647-321.0708l33.09522-23.21826A7.50118,7.50118,0,0,0,497.55664,131.42578Zm-458.95312,3.7334,55.43261-17.46094a7.49757,7.49757,0,0,0,4.917-4.9541l17.043-55.56348,33.73633,47.3252a7.50083,7.50083,0,0,0,6.10742,3.14648c.041,0,.083,0,.124-.001l58.11035-.96192-34.583,46.709a7.5,7.5,0,0,0-1.06641,6.89844l18.8711,54.96972-55.10938-18.457a7.49425,7.49425,0,0,0-6.88964,1.11719L88.84863,232.86133l.52442-58.11621a7.50332,7.50332,0,0,0-3.19239-6.207ZM466.71,256c0,116.89746-95.10254,212-212,212s-212-95.10254-212-212A209.79678,209.79678,0,0,1,61.196,169.33289l13.14185,9.21984-.626,69.36915a7.50024,7.50024,0,0,0,12.00782,6.06152l55.4414-41.69824,65.78125,22.03027a7.49989,7.49989,0,0,0,9.47559-9.54688l-22.52539-65.61328,41.2793-55.75293a7.49979,7.49979,0,0,0-6.15137-11.96191L159.6582,92.58789,146.26465,73.7998a212.22441,212.22441,0,0,1,218.69678,1.08545L352.3418,92.58789l-69.36231-1.14746c-.042-.001-.083-.001-.125-.001a7.49974,7.49974,0,0,0-6.02636,11.96289l41.27929,55.75293L295.582,224.76855a7.49989,7.49989,0,0,0,9.47559,9.54688l65.78125-22.03027,55.4414,41.69824a7.50024,7.50024,0,0,0,12.00782-6.06152l-.626-69.36915,11.17383-7.83911A209.81434,209.81434,0,0,1,466.71,256Zm-40.89062-87.46191a7.50332,7.50332,0,0,0-3.19239,6.207l.52442,58.11621-46.44824-34.93457a7.49755,7.49755,0,0,0-6.88965-1.11719l-55.10938,18.457,18.8711-54.96972a7.5,7.5,0,0,0-1.06641-6.89844l-34.583-46.709,58.11035.96192a7.47942,7.47942,0,0,0,6.23145-3.14551l33.73633-47.3252,17.043,55.56348a7.49755,7.49755,0,0,0,4.917,4.9541l55.43261,17.46094Z"/></svg>