<svg xmlns="http://www.w3.org/2000/svg" data-name="Layer 1" viewBox="0 0 512 512"><circle cx="256" cy="241" r="219.5" fill="#fdd402"/><circle cx="165.5" cy="162.5" r="28" fill="#74563a"/><path fill="#74563a" d="M384.5,276.5a124.90978,124.90978,0,0,1-125,125h-7a124.84973,124.84973,0,0,1-125-125,291.23618,291.23618,0,0,0,128.52,30h1.48A291.16582,291.16582,0,0,0,384.5,276.5Z"/><path fill="#e5303e" d="M310,325V434.64375C310,465.48882,285.82007,490.5,256,490.5s-54-25.01118-54-55.85625V325Z"/><path fill="#2c2b2d" d="M416.51465,80.48535A227,227,0,0,0,29,241,224.54572,224.54572,0,0,0,78.68945,382.752a228.10564,228.10564,0,0,0,120.876,78.16016,61.48061,61.48061,0,0,0,112.86914,0,228.10564,228.10564,0,0,0,120.876-78.16016,227.02051,227.02051,0,0,0-16.7959-302.2666ZM310,323a7.49974,7.49974,0,0,0-7.5,7.5v60.46576c0,.01306-.00024.02606,0,.03912V436.5a46.5,46.5,0,0,1-93,0v-106a7.5,7.5,0,0,0-15,0v48.21326a117.17506,117.17506,0,0,1-58.88672-90.14734A299.64178,299.64178,0,0,0,256.01953,314h1.51953a299.80693,299.80693,0,0,0,118.84668-25.43555A117.54629,117.54629,0,0,1,317.5,378.69391V330.5A7.49974,7.49974,0,0,0,310,323Zm7.01587,121.08185A61.73017,61.73017,0,0,0,317.5,436.5V395.64807A132.29625,132.29625,0,0,0,392,276.5a7.49985,7.49985,0,0,0-10.81934-6.72559A284.51108,284.51108,0,0,1,257.5,299h-1.48047a284.53832,284.53832,0,0,1-125.19922-29.2251A7.50042,7.50042,0,0,0,120,276.5a132.28535,132.28535,0,0,0,74.5,119.15277V436.5a61.73017,61.73017,0,0,0,.48413,7.58185A211.11339,211.11339,0,0,1,44,241C44,124.10254,139.10254,29,256,29s212,95.10254,212,212A211.11339,211.11339,0,0,1,317.01587,444.08185ZM165.5,127A35.5,35.5,0,1,0,201,162.5,35.54,35.54,0,0,0,165.5,127Zm0,56A20.5,20.5,0,1,1,186,162.5,20.52325,20.52325,0,0,1,165.5,183Zm181-26A35.54,35.54,0,0,0,311,192.5a7.5,7.5,0,0,0,15,0,20.5,20.5,0,0,1,41,0,7.5,7.5,0,0,0,15,0A35.54,35.54,0,0,0,346.5,157ZM256,329a7.49974,7.49974,0,0,0-7.5,7.5v74a7.5,7.5,0,0,0,15,0v-74A7.49974,7.49974,0,0,0,256,329Z"/></svg>