<svg xmlns="http://www.w3.org/2000/svg" data-name="Layer 1" viewBox="0 0 512 512"><circle cx="256" cy="256" r="219.5" fill="#fdd402"/><path fill="#fff" d="M387.17,312.3501c-.47,3.00976-1.06,5.98974-1.75,8.93994a124.90847,124.90847,0,0,1-107.8,95.7998l-6.96.78028a125.11162,125.11162,0,0,1-126.47009-69.68018c-1.28992-2.6499-2.49-5.36987-3.58984-8.12988a125.34856,125.34856,0,0,1-8.11011-32.4502,291.284,291.284,0,0,0,131.07,15.47022l1.47-.17017a291.09983,291.09983,0,0,0,122.85-43.99A125.53915,125.53915,0,0,1,387.17,312.3501Z"/><circle cx="180" cy="194.652" r="60" fill="#fff"/><circle cx="180" cy="194.652" r="15.5" fill="#74563a"/><circle cx="332" cy="214.652" r="30" fill="#74563a"/><path fill="#2c2b2d" d="M481.56152,230.66016A226.98012,226.98012,0,0,0,78.58545,114.42285,227.0163,227.0163,0,0,0,255.55957,483.00977a230.93241,230.93241,0,0,0,25.78125-1.44825,226.9811,226.9811,0,0,0,200.2207-250.90136ZM279.666,466.65527C163.50879,479.71,58.39453,395.82031,45.34473,279.666,32.29541,163.51074,116.17822,58.39453,232.334,45.34473a213.233,213.233,0,0,1,23.82276-1.33789c106.37646,0,198.34814,80.17675,210.49853,188.32714C479.70459,348.48926,395.82178,453.60547,279.666,466.65527Zm111.4414-194.50683a7.503,7.503,0,0,0-7.27295.458A284.515,284.515,0,0,1,264.18506,315.457l-1.4668.166a284.54255,284.54255,0,0,1-127.68017-15.06543,7.5002,7.5002,0,0,0-10.00147,7.89062,132.31993,132.31993,0,0,0,92.20606,111.72852,130.96365,130.96365,0,0,0,39.21777,5.999,134.61078,134.61078,0,0,0,15.04-.84765l6.957-.78125a132.156,132.156,0,0,0,88.7749-49.0254,132.9033,132.9033,0,0,0,22.4643-41.68847c.04235-.1272.08374-.25318.11932-.38281a131.2395,131.2395,0,0,0,4.76453-19.94239,133.07676,133.07676,0,0,0,.75586-35.4248A7.50068,7.50068,0,0,0,391.10742,272.14844ZM355.50781,366.166a117.16732,117.16732,0,0,1-78.72461,43.47461l-6.957.78125a117.543,117.543,0,0,1-102.13452-39.94874,301.94783,301.94783,0,0,0,69.05591,8.02491,294.3457,294.3457,0,0,0,34.33789-1.998,300.45218,300.45218,0,0,0,96.298-28.41968A117.97409,117.97409,0,0,1,355.50781,366.166Zm24.25391-54.98047a116.15245,116.15245,0,0,1-3.4588,15.22241,282.27842,282.27842,0,0,1-222.01374,24.92895,116.96576,116.96576,0,0,1-12.38928-32.64062A299.67487,299.67487,0,0,0,264.397,330.5293l1.50586-.1709A299.78812,299.78812,0,0,0,381.1665,291.81445,117.63191,117.63191,0,0,1,379.76172,311.18555ZM180,262.15234a67.5,67.5,0,1,0-67.5-67.5A67.57631,67.57631,0,0,0,180,262.15234Zm0-120a52.5,52.5,0,1,1-52.5,52.5A52.5596,52.5596,0,0,1,180,142.15234Zm0,75a22.5,22.5,0,1,0-22.5-22.5A22.52554,22.52554,0,0,0,180,217.15234Zm0-30a7.5,7.5,0,1,1-7.5,7.5A7.5082,7.5082,0,0,1,180,187.15234Zm152,65a37.5,37.5,0,1,0-37.5-37.5A37.54226,37.54226,0,0,0,332,252.15234Zm0-60a22.5,22.5,0,1,1-22.5,22.5A22.52554,22.52554,0,0,1,332,192.15234Z"/></svg>